<svg xmlns="http://www.w3.org/2000/svg" width="32" height="32" fill="none"><path fill="url(#a)" fill-rule="evenodd" d="M16 10.713c-3.596 0-6.512 2.869-6.512 6.408 0 1.77.728 3.37 1.907 4.53a.905.905 0 0 1 0 1.295.941.941 0 0 1-1.315 0 8.15 8.15 0 0 1-2.452-5.825c0-4.55 3.748-8.239 8.372-8.239s8.372 3.689 8.372 8.239a8.15 8.15 0 0 1-2.452 5.825.941.941 0 0 1-1.316 0 .905.905 0 0 1 0-1.294 6.335 6.335 0 0 0 1.908-4.531c0-3.54-2.916-6.408-6.512-6.408z" clip-rule="evenodd"/><path fill="url(#b)" fill-rule="evenodd" d="M16 5.83c-6.336 0-11.473 5.056-11.473 11.29 0 3.119 1.283 5.94 3.36 7.984a.905.905 0 0 1 0 1.295.941.941 0 0 1-1.315 0c-2.412-2.374-3.905-5.655-3.905-9.278C2.667 9.874 8.636 4 16 4s13.333 5.874 13.333 13.12c0 3.624-1.493 6.905-3.905 9.279a.941.941 0 0 1-1.316 0 .905.905 0 0 1 0-1.295c2.078-2.044 3.36-4.865 3.36-7.983 0-6.235-5.136-11.29-11.472-11.29z" clip-rule="evenodd"/><path fill="url(#c)" d="M13.746 23.125c1.024-1.167 1.535-1.751 2.167-1.79.058-.003.116-.003.174 0 .631.039 1.143.623 2.166 1.79 2.227 2.541 3.34 3.812 3.029 4.908a2.03 2.03 0 0 1-.1.274c-.459 1.026-2.033 1.026-5.182 1.026-3.15 0-4.724 0-5.182-1.026a2.03 2.03 0 0 1-.1-.274c-.312-1.096.802-2.367 3.028-4.908z"/><path fill="url(#d)" d="M19.333 16.667a3.333 3.333 0 1 1-6.667 0 3.333 3.333 0 0 1 6.667 0z"/><defs><linearGradient id="a" x1="16" x2="16" y1="4" y2="29.333" gradientUnits="userSpaceOnUse"><stop offset=".174" stop-color="#003CFF"/><stop offset=".532" stop-color="#3363FF"/><stop offset="1" stop-color="#668AFF"/></linearGradient><linearGradient id="b" x1="16" x2="16" y1="4" y2="29.333" gradientUnits="userSpaceOnUse"><stop offset=".174" stop-color="#003CFF"/><stop offset=".532" stop-color="#3363FF"/><stop offset="1" stop-color="#668AFF"/></linearGradient><linearGradient id="c" x1="16" x2="16" y1="4" y2="29.333" gradientUnits="userSpaceOnUse"><stop offset=".174" stop-color="#003CFF"/><stop offset=".532" stop-color="#3363FF"/><stop offset="1" stop-color="#668AFF"/></linearGradient><linearGradient id="d" x1="16" x2="16" y1="4" y2="29.333" gradientUnits="userSpaceOnUse"><stop offset=".174" stop-color="#003CFF"/><stop offset=".532" stop-color="#3363FF"/><stop offset="1" stop-color="#668AFF"/></linearGradient></defs></svg>