<svg xmlns="http://www.w3.org/2000/svg" width="20" height="21" fill="none"><path fill="#3363FF" d="M10.694 18.668c2.605-.523 5.973-2.396 5.973-7.242 0-4.41-3.228-7.346-5.55-8.695-.514-.3-1.117.094-1.117.69v1.523c0 1.202-.505 3.395-1.909 4.307-.717.466-1.49-.231-1.578-1.081l-.071-.698c-.083-.812-.91-1.305-1.559-.81C3.718 7.551 2.5 9.108 2.5 11.426c0 5.926 4.407 7.407 6.611 7.407.128 0 .263-.004.403-.012-1.088-.093-2.847-.768-2.847-2.951 0-1.708 1.246-2.863 2.192-3.425.255-.15.553.045.553.341v.491c0 .376.145.964.491 1.366.391.455.966-.022 1.012-.62.015-.19.205-.31.368-.214.535.312 1.217.98 1.217 2.061 0 1.707-.94 2.492-1.806 2.798z"/></svg>