<svg xmlns="http://www.w3.org/2000/svg" width="26" height="26" fill="none"><path fill="#3363FF" d="M2.167 7.042a4.875 4.875 0 0 1 9.75 0v3.25c0 .377 0 .566-.042.721-.113.421-.441.75-.862.862-.155.042-.344.042-.722.042h-3.25a4.875 4.875 0 0 1-4.875-4.875zm11.916 8.666c0-.377 0-.566.042-.721.112-.42.44-.75.861-.862.155-.042.344-.042.722-.042h3.25a4.875 4.875 0 1 1-4.875 4.875v-3.25zm-11.916 3.25a4.875 4.875 0 0 1 4.875-4.875h2.925c.682 0 1.023 0 1.284.133.23.117.416.304.533.533.132.26.132.602.132 1.284v2.925a4.875 4.875 0 1 1-9.75 0zM14.083 7.042a4.875 4.875 0 1 1 4.875 4.875h-3.482c-.162 0-.243 0-.31-.008a1.219 1.219 0 0 1-1.075-1.075c-.008-.068-.008-.148-.008-.31V7.042z"/></svg>