<svg xmlns="http://www.w3.org/2000/svg" width="32" height="32" fill="none"><path fill="url(#a)" fill-rule="evenodd" d="M16 14.667a4.667 4.667 0 1 0 0-9.334 4.667 4.667 0 0 0 0 9.334zm0 12c4.418 0 8-2.09 8-4.667s-3.582-4.666-8-4.666S8 19.422 8 22c0 2.578 3.582 4.667 8 4.667zm-6.504-20c.237 0 .468.023.69.067A6.636 6.636 0 0 0 9.334 10c0 1.158.295 2.246.814 3.195-.21.04-.428.06-.651.06-1.886 0-3.415-1.475-3.415-3.294 0-1.82 1.529-3.295 3.415-3.295zM7.263 25.314C6.506 24.409 6 23.297 6 22c0-1.26.475-2.341 1.194-3.231-2.54.197-4.527 1.586-4.527 3.27 0 1.7 2.023 3.1 4.596 3.275zm14.59-12.12A6.637 6.637 0 0 0 22.665 10c0-1.187-.31-2.3-.853-3.266a3.55 3.55 0 0 1 .69-.067c1.887 0 3.415 1.474 3.415 3.294 0 1.819-1.528 3.294-3.414 3.294-.223 0-.44-.02-.652-.06zm7.48 8.844c0 1.7-2.023 3.1-4.596 3.275C25.494 24.41 26 23.3 26 22c0-1.26-.476-2.341-1.195-3.231 2.54.197 4.528 1.586 4.528 3.27z" clip-rule="evenodd"/><defs><linearGradient id="a" x1="16" x2="16" y1="5.333" y2="26.667" gradientUnits="userSpaceOnUse"><stop offset=".174" stop-color="#003CFF"/><stop offset=".532" stop-color="#3363FF"/><stop offset="1" stop-color="#668AFF"/></linearGradient></defs></svg>