<svg xmlns="http://www.w3.org/2000/svg" width="98" height="115" fill="none"><path fill="#0F3D3A" d="M97.108 85.42H.93a.63.63 0 0 1-.55-.948L48.464 1.19c.227-.392.87-.392 1.097 0l48.028 83.186a.626.626 0 0 1 .152.412.63.63 0 0 1-.632.633Zm-95.08-1.265h93.97L49.013 2.773 2.028 84.155Z"/><path fill="#0F3D3A" d="M49.013 111.885a.632.632 0 0 1-.545-.311L.385 30.53a.634.634 0 0 1 .545-.956h96.164a.634.634 0 0 1 .544.956l-48.08 81.044a.632.632 0 0 1-.545.311ZM2.043 30.84l46.971 79.17 46.97-79.17H2.041Z"/><path fill="#0F3D3A" d="M49.013 113.182a.626.626 0 0 1-.317-.085L.613 85.337a.632.632 0 0 1-.316-.55v-55.52a.63.63 0 0 1 .316-.548L48.696.958a.64.64 0 0 1 .634 0l48.08 27.76a.63.63 0 0 1 .317.549v55.52c0 .228-.12.437-.316.55l-48.081 27.76a.644.644 0 0 1-.317.085Zm-47.45-28.76 47.45 27.396L96.46 84.423V29.632L49.013 2.237 1.563 29.632v54.79Z"/><path fill="#0F3D3A" d="M49.013 80.725c-12.808 0-23.228-10.42-23.228-23.228 0-12.808 10.42-23.228 23.228-23.228 12.81 0 23.23 10.42 23.23 23.228 0 12.809-10.42 23.228-23.23 23.228Zm0-45.19c-12.108 0-21.96 9.854-21.96 21.962 0 12.11 9.852 21.962 21.96 21.962 12.11 0 21.963-9.852 21.963-21.962 0-12.108-9.852-21.961-21.963-21.961Z"/><path fill="#0F3D3A" d="M49.012 114.121a.632.632 0 0 1-.633-.633V1.507a.633.633 0 1 1 1.267 0v111.981a.633.633 0 0 1-.634.633Z"/></svg>