<svg xmlns="http://www.w3.org/2000/svg" width="99" height="113" fill="none"><path fill="#0F3D3A" d="M49.422 112.651a.625.625 0 0 1-.316-.085L1.023 84.806a.632.632 0 0 1-.316-.55v-55.52a.63.63 0 0 1 .316-.548L49.106.426a.638.638 0 0 1 .633 0l48.082 27.76a.63.63 0 0 1 .316.549v55.522a.632.632 0 0 1-.316.549l-48.082 27.76a.634.634 0 0 1-.317.085ZM1.971 83.891l47.45 27.396 47.447-27.395V29.1L49.421 1.706 1.971 29.1v54.79Z"/><path fill="#0F3D3A" d="M49.423 99.418a.625.625 0 0 1-.316-.085L12.484 78.19a.634.634 0 0 1-.316-.548v-42.29c0-.226.121-.436.316-.548l36.623-21.143a.638.638 0 0 1 .633 0l36.621 21.143a.633.633 0 0 1 .316.549v42.289a.634.634 0 0 1-.316.548L49.74 99.333a.634.634 0 0 1-.317.085Zm-35.99-22.142 35.989 20.777 35.987-20.777V35.718L49.422 14.94 13.433 35.718v41.558Z"/><path fill="#0F3D3A" d="M1.342 84.89a.634.634 0 0 1-.318-1.18l11.46-6.616a.634.634 0 0 1 .634 1.097L1.657 84.807a.633.633 0 0 1-.315.084ZM12.8 35.986a.614.614 0 0 1-.316-.085l-11.46-6.616a.634.634 0 1 1 .633-1.096l11.461 6.616a.634.634 0 0 1-.319 1.181ZM97.503 84.89a.633.633 0 0 0 .319-1.18L86.36 77.095a.635.635 0 0 0-.635 1.097l11.461 6.616a.631.631 0 0 0 .316.084ZM86.045 35.986a.615.615 0 0 0 .316-.085l11.461-6.616a.634.634 0 0 0-.635-1.096l-11.46 6.616a.634.634 0 0 0 .318 1.181ZM49.424 14.843a.633.633 0 0 1-.635-.633V.977a.634.634 0 0 1 1.268 0V14.21a.634.634 0 0 1-.633.633Zm0 96.511a.634.634 0 0 1-.635-.635V98.783a.634.634 0 0 1 1.268 0v11.936a.634.634 0 0 1-.633.635Zm-.001-26.234a.625.625 0 0 1-.316-.085L23.583 70.3a.636.636 0 0 1-.317-.55V40.278c0-.226.12-.435.317-.55l25.524-14.733a.638.638 0 0 1 .633 0l25.523 14.734a.635.635 0 0 1 .316.549V69.75c0 .227-.12.436-.316.55L49.74 85.035a.634.634 0 0 1-.317.085ZM24.53 69.386l24.892 14.37 24.888-14.37V40.645l-24.888-14.37-24.892 14.37v28.74Z"/><path fill="#0F3D3A" d="M23.9 70.384a.633.633 0 0 1-.318-1.18L74.628 39.73a.633.633 0 0 1 .634 1.098L24.216 70.3a.646.646 0 0 1-.316.083Z"/><path fill="#0F3D3A" d="M74.944 70.384a.633.633 0 0 1-.316-.083L23.582 40.828a.634.634 0 0 1 .634-1.098l51.046 29.474a.631.631 0 0 1-.318 1.18Z"/><path fill="#0F3D3A" d="M49.424 85.12a.633.633 0 0 1-.635-.634V25.544a.634.634 0 0 1 1.268 0v58.942a.633.633 0 0 1-.633.634Z"/></svg>