<svg xmlns="http://www.w3.org/2000/svg" width="92" height="116" fill="none"><path fill="#0F3D3A" d="M31.038 70.973a.641.641 0 0 1-.317-.085L.755 53.585a.633.633 0 0 1-.318-.55V18.433c0-.227.122-.436.318-.55L30.72.583a.643.643 0 0 1 .634 0l29.968 17.3a.635.635 0 0 1 .316.55v34.604a.636.636 0 0 1-.316.549l-29.97 17.302a.642.642 0 0 1-.316.085ZM1.704 52.67l29.334 16.938L60.373 52.67V18.8L31.039 1.862 1.703 18.8v33.87Z"/><path fill="#0F3D3A" d="M16.053 27.718a.62.62 0 0 1-.316-.086L.755 18.982a.633.633 0 1 1 .634-1.097l14.984 8.652a.633.633 0 0 1-.319 1.181Z"/><path fill="#0F3D3A" d="M16.056 27.718a.631.631 0 0 1-.55-.318.63.63 0 0 1 .233-.863l14.983-8.652a.633.633 0 1 1 .634 1.097l-14.983 8.65a.63.63 0 0 1-.317.086Z"/><path fill="#0F3D3A" d="M61.006 70.973a.635.635 0 0 1-.316-.085L30.722 53.585a.632.632 0 0 1-.316-.55V18.433c0-.227.12-.436.316-.55L60.69.583a.645.645 0 0 1 .634 0l29.967 17.3a.634.634 0 0 1 .316.55v34.604c0 .227-.12.435-.316.549L61.324 70.888a.662.662 0 0 1-.318.085ZM31.672 52.67l29.334 16.938L90.34 52.67V18.8L61.006 1.862 31.672 18.8v33.87Z"/><path fill="#0F3D3A" d="M46.022 115.167a.625.625 0 0 1-.316-.085L15.739 97.781a.633.633 0 0 1-.317-.55V62.629a.63.63 0 0 1 .317-.548l29.967-17.302a.633.633 0 0 1 .633 0L76.307 62.08a.632.632 0 0 1 .316.548v34.604c0 .227-.12.436-.316.549l-29.968 17.301a.628.628 0 0 1-.317.085ZM16.689 96.866l29.333 16.936 29.334-16.936V62.994L46.022 46.057 16.689 62.994v33.872Z"/><path fill="#0F3D3A" d="M61.004 106.585a.632.632 0 0 1-.633-.633V70.339a.632.632 0 1 1 1.267 0v35.613a.634.634 0 0 1-.634.633Zm-29.964 0a.632.632 0 0 1-.634-.633V70.339a.633.633 0 0 1 1.266 0v35.613a.632.632 0 0 1-.633.633ZM16.055 63.143a.632.632 0 0 1-.633-.633V27.084a.634.634 0 1 1 1.267 0V62.51c0 .35-.285.633-.634.633ZM75.99 27.718a.61.61 0 0 1-.315-.086l-14.983-8.65a.634.634 0 0 1 .633-1.097l14.984 8.652a.63.63 0 0 1 .23.863.632.632 0 0 1-.549.318Z"/><path fill="#0F3D3A" d="M75.99 27.718a.631.631 0 0 1-.55-.318.63.63 0 0 1 .233-.863l14.981-8.652a.634.634 0 0 1 .634 1.097l-14.982 8.65a.632.632 0 0 1-.316.086Z"/><path fill="#0F3D3A" d="M75.99 63.143a.633.633 0 0 1-.634-.633V27.084a.633.633 0 1 1 1.268 0V62.51c0 .35-.283.633-.634.633ZM46.02 45.96a.633.633 0 0 1-.633-.633v-34.59a.634.634 0 1 1 1.267 0v34.59c0 .35-.284.633-.634.633Z"/></svg>