<svg xmlns="http://www.w3.org/2000/svg" width="87" height="125" fill="none"><path fill="#0F3D3A" d="M43.421 111.638a.63.63 0 0 1-.316-.085L.965 87.224a.633.633 0 0 1-.317-.549v-48.66c0-.226.121-.435.316-.549l42.141-24.329a.638.638 0 0 1 .633 0L85.88 37.466a.637.637 0 0 1 .316.549v48.66a.633.633 0 0 1-.316.549l-42.14 24.329a.644.644 0 0 1-.318.085ZM1.915 86.31l41.506 23.964L84.927 86.31V38.381L43.421 14.416 1.915 38.381V86.31Z"/><path fill="#0F3D3A" d="M43.147 111.092a.638.638 0 0 1-.549-.317L.733 38.259a.635.635 0 0 1 .547-.95h83.734a.63.63 0 0 1 .547.316.626.626 0 0 1 0 .634l-41.865 72.516a.629.629 0 0 1-.549.317ZM2.378 38.576l40.77 70.614 40.77-70.614H2.378Z"/><path fill="#0F3D3A" d="M43.422 81.395c-10.504 0-19.05-8.545-19.05-19.05s8.546-19.052 19.05-19.052c10.506 0 19.053 8.547 19.053 19.052 0 10.505-8.548 19.05-19.053 19.05Zm0-36.835c-9.805 0-17.783 7.979-17.783 17.785 0 9.807 7.98 17.783 17.783 17.783 9.807 0 17.785-7.977 17.785-17.783 0-9.806-7.979-17.785-17.785-17.785Zm0-5.984c-10.504 0-19.05-8.547-19.05-19.051 0-10.506 8.546-19.053 19.05-19.053 10.506 0 19.053 8.547 19.053 19.053 0 10.504-8.548 19.05-19.053 19.05Zm0-36.837c-9.805 0-17.783 7.979-17.783 17.786 0 9.806 7.98 17.783 17.783 17.783 9.807 0 17.785-7.978 17.785-17.783 0-9.807-7.979-17.786-17.785-17.786Zm0 122.833c-10.504 0-19.05-8.545-19.05-19.05s8.546-19.052 19.05-19.052c10.506 0 19.053 8.547 19.053 19.052 0 10.505-8.548 19.05-19.053 19.05Zm0-36.835c-9.805 0-17.783 7.979-17.783 17.785 0 9.806 7.98 17.783 17.783 17.783 9.807 0 17.785-7.977 17.785-17.783 0-9.806-7.979-17.785-17.785-17.785Z"/><path fill="#0F3D3A" d="M43.422 123.771a.632.632 0 0 1-.633-.633V1.106a.633.633 0 1 1 1.268 0v122.032a.634.634 0 0 1-.635.633Z"/></svg>