<svg xmlns="http://www.w3.org/2000/svg" width="86" height="115" fill="none"><path fill="#0F3D3A" d="M84.652 74.1H.906a.633.633 0 0 1-.548-.949L42.223.635c.227-.393.871-.393 1.097 0l41.812 72.42a.62.62 0 0 1 .153.412.63.63 0 0 1-.633.633ZM2.004 72.835h81.54L42.773 2.218 2.003 72.835Z"/><path fill="#0F3D3A" d="M84.652 114.725H.906a.634.634 0 0 1-.548-.949L42.223 41.26c.227-.393.871-.393 1.097 0l41.812 72.418a.631.631 0 0 1-.48 1.047ZM2.004 113.46h81.54l-40.77-70.617-40.77 70.617Z"/><path fill="#0F3D3A" d="M42.774 100.218c-15.931 0-28.891-12.961-28.891-28.891 0-15.932 12.96-28.891 28.89-28.891s28.89 12.959 28.89 28.89c0 15.93-12.96 28.892-28.89 28.892Zm0-56.514c-15.232 0-27.624 12.393-27.624 27.623S27.542 98.95 42.774 98.95c15.23 0 27.623-12.393 27.623-27.623S58.006 43.704 42.774 43.704Z"/><path fill="#0F3D3A" d="M42.775 114.725a.633.633 0 0 1-.634-.633V.952a.633.633 0 0 1 1.268 0v113.141a.633.633 0 0 1-.634.632Z"/></svg>