<svg xmlns="http://www.w3.org/2000/svg" width="101" height="97" fill="none"><path fill="#0F3D3A" d="M100.166 96.424H1.395a.63.63 0 0 1-.562-.925L50.214.342c.217-.42.906-.42 1.123 0L100.665 95.4a.622.622 0 0 1 .137.392.635.635 0 0 1-.636.632ZM2.438 95.159h96.673L50.773 2.009 2.438 95.159Z"/><path fill="#0F3D3A" d="M50.774 96.424a.629.629 0 0 1-.56-.341L.833.925A.632.632 0 0 1 1.395 0h98.76a.633.633 0 0 1 .561.925L51.335 96.083a.629.629 0 0 1-.561.34ZM2.439 1.267l48.336 93.149 48.337-93.15H2.439Z"/><path fill="#0F3D3A" d="M50.773 64.388c-9.15 0-16.597-7.446-16.597-16.6 0-9.15 7.447-16.597 16.597-16.597 9.153 0 16.599 7.446 16.599 16.598 0 9.153-7.445 16.599-16.6 16.599Zm0-31.931c-8.453 0-15.33 6.879-15.33 15.332 0 8.454 6.877 15.33 15.33 15.33 8.455 0 15.332-6.876 15.332-15.33 0-8.453-6.877-15.332-15.332-15.332Z"/><path fill="#0F3D3A" d="M50.775 96.424a.632.632 0 0 1-.63-.633V.633a.632.632 0 1 1 1.264 0V95.79c0 .35-.282.633-.634.633Z"/><path fill="#0F3D3A" d="M50.774 32.457a.618.618 0 0 1-.336-.098L1.058 1.169A.633.633 0 0 1 1.732.098l49.38 31.19a.633.633 0 0 1-.339 1.169Z"/><path fill="#0F3D3A" d="M50.775 32.457a.629.629 0 0 1-.535-.295.629.629 0 0 1 .197-.873L99.814.098a.633.633 0 1 1 .677 1.07l-49.379 31.19a.624.624 0 0 1-.337.099ZM1.396 96.424a.631.631 0 0 1-.345-1.164l49.38-32.038a.635.635 0 0 1 .688 1.064L1.741 96.323a.642.642 0 0 1-.345.1Z"/><path fill="#0F3D3A" d="M100.156 96.424a.624.624 0 0 1-.344-.102L50.433 64.285a.633.633 0 0 1 .688-1.064l49.38 32.038a.633.633 0 0 1-.345 1.165Z"/></svg>