<svg width="180" height="180" viewBox="0 0 180 180" fill="none" xmlns="http://www.w3.org/2000/svg">
<g clip-path="url(#clip0_178_12349)">
<path d="M112.657 2.89551L96.4651 63.3236" stroke="#CFCFCF" stroke-opacity="0.7" stroke-width="1.35999"/>
</g>
<g clip-path="url(#clip1_178_12349)">
<path d="M123.832 6.59814L99.891 64.3958" stroke="#CFCFCF" stroke-opacity="0.7" stroke-width="1.35999"/>
</g>
<g clip-path="url(#clip2_178_12349)">
<path d="M134.428 11.728L103.148 65.9064" stroke="#CFCFCF" stroke-opacity="0.7" stroke-width="1.35999"/>
</g>
<g clip-path="url(#clip3_178_12349)">
<path d="M144.265 18.1963L106.181 67.8283" stroke="#CFCFCF" stroke-opacity="0.7" stroke-width="1.35999"/>
</g>
<g clip-path="url(#clip4_178_12349)">
<path d="M153.173 25.8936L108.936 70.13" stroke="#CFCFCF" stroke-opacity="0.7" stroke-width="1.35999"/>
</g>
<g clip-path="url(#clip5_178_12349)">
<path d="M161 34.6885L111.368 72.7725" stroke="#CFCFCF" stroke-opacity="0.7" stroke-width="1.35999"/>
</g>
<g clip-path="url(#clip6_178_12349)">
<path d="M167.612 44.4287L113.434 75.7086" stroke="#CFCFCF" stroke-opacity="0.7" stroke-width="1.35999"/>
</g>
<g clip-path="url(#clip7_178_12349)">
<path d="M172.896 54.9487L115.099 78.8894" stroke="#CFCFCF" stroke-opacity="0.7" stroke-width="1.35999"/>
</g>
<g clip-path="url(#clip8_178_12349)">
<path d="M176.762 66.0688L116.334 82.2605" stroke="#CFCFCF" stroke-opacity="0.7" stroke-width="1.35999"/>
</g>
<g clip-path="url(#clip9_178_12349)">
<path d="M179.144 77.5981L117.119 85.7638" stroke="#CFCFCF" stroke-opacity="0.7" stroke-width="1.35999"/>
</g>
<g clip-path="url(#clip10_178_12349)">
<path d="M180 89.3403L117.44 89.3403" stroke="#CFCFCF" stroke-opacity="0.7" stroke-width="1.35999"/>
</g>
<g clip-path="url(#clip11_178_12349)">
<path d="M179.316 101.093L117.292 92.927" stroke="#CFCFCF" stroke-opacity="0.7" stroke-width="1.35999"/>
</g>
<g clip-path="url(#clip12_178_12349)">
<path d="M177.104 112.656L116.676 96.4645" stroke="#CFCFCF" stroke-opacity="0.7" stroke-width="1.35999"/>
</g>
<g clip-path="url(#clip13_178_12349)">
<path d="M173.402 123.832L115.604 99.8914" stroke="#CFCFCF" stroke-opacity="0.7" stroke-width="1.35999"/>
</g>
<g clip-path="url(#clip14_178_12349)">
<path d="M168.272 134.428L114.094 103.148" stroke="#CFCFCF" stroke-opacity="0.7" stroke-width="1.35999"/>
</g>
<g clip-path="url(#clip15_178_12349)">
<path d="M161.804 144.265L112.172 106.181" stroke="#CFCFCF" stroke-opacity="0.7" stroke-width="1.35999"/>
</g>
<g clip-path="url(#clip16_178_12349)">
<path d="M154.106 153.172L109.87 108.936" stroke="#CFCFCF" stroke-opacity="0.7" stroke-width="1.35999"/>
</g>
<g clip-path="url(#clip17_178_12349)">
<path d="M145.312 161L107.228 111.367" stroke="#CFCFCF" stroke-opacity="0.7" stroke-width="1.35999"/>
</g>
<g clip-path="url(#clip18_178_12349)">
<path d="M135.572 167.612L104.292 113.434" stroke="#CFCFCF" stroke-opacity="0.7" stroke-width="1.35999"/>
</g>
<g clip-path="url(#clip19_178_12349)">
<path d="M125.051 172.896L101.111 115.099" stroke="#CFCFCF" stroke-opacity="0.7" stroke-width="1.35999"/>
</g>
<g clip-path="url(#clip20_178_12349)">
<path d="M113.932 176.762L97.7401 116.334" stroke="#CFCFCF" stroke-opacity="0.7" stroke-width="1.35999"/>
</g>
<g clip-path="url(#clip21_178_12349)">
<path d="M102.402 179.144L94.2362 117.119" stroke="#CFCFCF" stroke-opacity="0.7" stroke-width="1.35999"/>
</g>
<g clip-path="url(#clip22_178_12349)">
<path d="M90.6602 180L90.6602 117.44" stroke="#CFCFCF" stroke-opacity="0.7" stroke-width="1.35999"/>
</g>
<g clip-path="url(#clip23_178_12349)">
<path d="M78.9067 179.316L87.0724 117.292" stroke="#CFCFCF" stroke-opacity="0.7" stroke-width="1.35999"/>
</g>
<g clip-path="url(#clip24_178_12349)">
<path d="M67.3433 177.104L83.5349 116.676" stroke="#CFCFCF" stroke-opacity="0.7" stroke-width="1.35999"/>
</g>
<g clip-path="url(#clip25_178_12349)">
<path d="M56.1685 173.402L80.109 115.604" stroke="#CFCFCF" stroke-opacity="0.7" stroke-width="1.35999"/>
</g>
<g clip-path="url(#clip26_178_12349)">
<path d="M45.5718 168.272L76.8516 114.094" stroke="#CFCFCF" stroke-opacity="0.7" stroke-width="1.35999"/>
</g>
<g clip-path="url(#clip27_178_12349)">
<path d="M35.7354 161.804L73.8192 112.172" stroke="#CFCFCF" stroke-opacity="0.7" stroke-width="1.35999"/>
</g>
<g clip-path="url(#clip28_178_12349)">
<path d="M26.8271 154.106L71.0635 109.87" stroke="#CFCFCF" stroke-opacity="0.7" stroke-width="1.35999"/>
</g>
<g clip-path="url(#clip29_178_12349)">
<path d="M19.0005 145.312L68.6324 107.227" stroke="#CFCFCF" stroke-opacity="0.7" stroke-width="1.35999"/>
</g>
<g clip-path="url(#clip30_178_12349)">
<path d="M12.3877 135.571L66.566 104.291" stroke="#CFCFCF" stroke-opacity="0.7" stroke-width="1.35999"/>
</g>
<g clip-path="url(#clip31_178_12349)">
<path d="M7.10352 125.051L64.9011 101.111" stroke="#CFCFCF" stroke-opacity="0.7" stroke-width="1.35999"/>
</g>
<g clip-path="url(#clip32_178_12349)">
<path d="M3.23779 113.931L63.6658 97.7395" stroke="#CFCFCF" stroke-opacity="0.7" stroke-width="1.35999"/>
</g>
<g clip-path="url(#clip33_178_12349)">
<path d="M0.856445 102.402L62.881 94.2361" stroke="#CFCFCF" stroke-opacity="0.7" stroke-width="1.35999"/>
</g>
<g clip-path="url(#clip34_178_12349)">
<path d="M0 90.6597L62.5597 90.6597" stroke="#CFCFCF" stroke-opacity="0.7" stroke-width="1.35999"/>
</g>
<g clip-path="url(#clip35_178_12349)">
<path d="M0.683594 78.9072L62.7081 87.0729" stroke="#CFCFCF" stroke-opacity="0.7" stroke-width="1.35999"/>
</g>
<g clip-path="url(#clip36_178_12349)">
<path d="M2.89551 67.3438L63.3236 83.5355" stroke="#CFCFCF" stroke-opacity="0.7" stroke-width="1.35999"/>
</g>
<g clip-path="url(#clip37_178_12349)">
<path d="M6.59814 56.1685L64.3958 80.1091" stroke="#CFCFCF" stroke-opacity="0.7" stroke-width="1.35999"/>
</g>
<g clip-path="url(#clip38_178_12349)">
<path d="M11.728 45.5718L65.9063 76.8517" stroke="#CFCFCF" stroke-opacity="0.7" stroke-width="1.35999"/>
</g>
<g clip-path="url(#clip39_178_12349)">
<path d="M18.1963 35.7349L67.8282 73.8189" stroke="#CFCFCF" stroke-opacity="0.7" stroke-width="1.35999"/>
</g>
<g clip-path="url(#clip40_178_12349)">
<path d="M25.8936 26.8276L70.1299 71.0641" stroke="#CFCFCF" stroke-opacity="0.7" stroke-width="1.35999"/>
</g>
<g clip-path="url(#clip41_178_12349)">
<path d="M34.688 19.0005L72.7719 68.6325" stroke="#CFCFCF" stroke-opacity="0.7" stroke-width="1.35999"/>
</g>
<g clip-path="url(#clip42_178_12349)">
<path d="M44.4282 12.3877L75.708 66.5661" stroke="#CFCFCF" stroke-opacity="0.7" stroke-width="1.35999"/>
</g>
<g clip-path="url(#clip43_178_12349)">
<path d="M54.9487 7.10352L78.8892 64.9012" stroke="#CFCFCF" stroke-opacity="0.7" stroke-width="1.35999"/>
</g>
<g clip-path="url(#clip44_178_12349)">
<path d="M66.0688 3.23779L82.2604 63.6659" stroke="#CFCFCF" stroke-opacity="0.7" stroke-width="1.35999"/>
</g>
<g clip-path="url(#clip45_178_12349)">
<path d="M77.5981 0.856445L85.7638 62.881" stroke="#CFCFCF" stroke-opacity="0.7" stroke-width="1.35999"/>
</g>
<path d="M89.3398 0V62.5597" stroke="#CFCFCF" stroke-opacity="0.7" stroke-width="1.35999"/>
<g clip-path="url(#clip46_178_12349)">
<path d="M101.093 0.683594L92.9276 62.7081" stroke="#CFCFCF" stroke-opacity="0.7" stroke-width="1.35999"/>
</g>
<defs>
<clipPath id="clip0_178_12349">
<rect width="5.39998" height="180" fill="white" transform="matrix(0.965925 0.258821 -0.258819 0.965926 110.686 2.36768)"/>
</clipPath>
<clipPath id="clip1_178_12349">
<rect width="5.39998" height="180" fill="white" transform="matrix(0.923879 0.382685 -0.382683 0.92388 121.947 5.81738)"/>
</clipPath>
<clipPath id="clip2_178_12349">
<rect width="5.39998" height="180" fill="white" transform="matrix(0.866024 0.500002 -0.499999 0.866026 132.662 10.708)"/>
</clipPath>
<clipPath id="clip3_178_12349">
<rect width="5.39998" height="180" fill="white" transform="matrix(0.793352 0.608763 -0.608761 0.793354 142.646 16.9546)"/>
</clipPath>
<clipPath id="clip4_178_12349">
<rect width="5.39999" height="180" fill="white" transform="matrix(0.707105 0.707108 -0.707106 0.707108 151.73 24.4512)"/>
</clipPath>
<clipPath id="clip5_178_12349">
<rect width="5.39999" height="179.999" fill="white" transform="matrix(0.60876 0.793355 -0.793353 0.608762 159.758 33.0698)"/>
</clipPath>
<clipPath id="clip6_178_12349">
<rect width="5.39999" height="179.999" fill="white" transform="matrix(0.499998 0.866026 -0.866025 0.500001 166.592 42.6621)"/>
</clipPath>
<clipPath id="clip7_178_12349">
<rect width="5.39999" height="179.999" fill="white" transform="matrix(0.382682 0.92388 -0.923879 0.382684 172.116 53.064)"/>
</clipPath>
<clipPath id="clip8_178_12349">
<rect width="5.4" height="179.999" fill="white" transform="matrix(0.258818 0.965926 -0.965926 0.258819 176.234 64.0981)"/>
</clipPath>
<clipPath id="clip9_178_12349">
<rect width="5.4" height="179.999" fill="white" transform="translate(178.877 75.5757) rotate(82.5001)"/>
</clipPath>
<clipPath id="clip10_178_12349">
<rect width="5.4" height="179.999" fill="white" transform="translate(180 87.3003) rotate(90)"/>
</clipPath>
<clipPath id="clip11_178_12349">
<rect width="5.4" height="179.999" fill="white" transform="translate(179.583 99.0703) rotate(97.5)"/>
</clipPath>
<clipPath id="clip12_178_12349">
<rect width="5.4" height="179.999" fill="white" transform="matrix(-0.258819 0.965926 -0.965926 -0.25882 177.632 110.686)"/>
</clipPath>
<clipPath id="clip13_178_12349">
<rect width="5.39999" height="179.999" fill="white" transform="matrix(-0.382683 0.92388 -0.923879 -0.382685 174.183 121.947)"/>
</clipPath>
<clipPath id="clip14_178_12349">
<rect width="5.39999" height="179.999" fill="white" transform="matrix(-0.499999 0.866026 -0.866024 -0.500002 169.292 132.662)"/>
</clipPath>
<clipPath id="clip15_178_12349">
<rect width="5.39999" height="179.999" fill="white" transform="matrix(-0.60876 0.793354 -0.793352 -0.608763 163.045 142.646)"/>
</clipPath>
<clipPath id="clip16_178_12349">
<rect width="5.39999" height="180" fill="white" transform="matrix(-0.707106 0.707108 -0.707105 -0.707108 155.548 151.73)"/>
</clipPath>
<clipPath id="clip17_178_12349">
<rect width="5.39998" height="180" fill="white" transform="matrix(-0.793352 0.608763 -0.60876 -0.793355 146.931 159.758)"/>
</clipPath>
<clipPath id="clip18_178_12349">
<rect width="5.39998" height="180" fill="white" transform="matrix(-0.866025 0.500001 -0.499998 -0.866026 137.338 166.592)"/>
</clipPath>
<clipPath id="clip19_178_12349">
<rect width="5.39998" height="180" fill="white" transform="matrix(-0.923879 0.382684 -0.382682 -0.92388 126.936 172.116)"/>
</clipPath>
<clipPath id="clip20_178_12349">
<rect width="5.39998" height="180" fill="white" transform="matrix(-0.965926 0.25882 -0.258818 -0.965926 115.902 176.234)"/>
</clipPath>
<clipPath id="clip21_178_12349">
<rect width="5.39998" height="180" fill="white" transform="translate(104.424 178.877) rotate(172.5)"/>
</clipPath>
<clipPath id="clip22_178_12349">
<rect width="5.39998" height="180" fill="white" transform="translate(92.7002 180) rotate(-180)"/>
</clipPath>
<clipPath id="clip23_178_12349">
<rect width="5.39998" height="180" fill="white" transform="translate(80.9292 179.583) rotate(-172.5)"/>
</clipPath>
<clipPath id="clip24_178_12349">
<rect width="5.39998" height="180" fill="white" transform="matrix(-0.965926 -0.25882 0.258818 -0.965926 69.314 177.632)"/>
</clipPath>
<clipPath id="clip25_178_12349">
<rect width="5.39998" height="180" fill="white" transform="matrix(-0.923879 -0.382685 0.382683 -0.92388 58.0532 174.183)"/>
</clipPath>
<clipPath id="clip26_178_12349">
<rect width="5.39998" height="180" fill="white" transform="matrix(-0.866025 -0.500002 0.499999 -0.866026 47.3384 169.292)"/>
</clipPath>
<clipPath id="clip27_178_12349">
<rect width="5.39998" height="180" fill="white" transform="matrix(-0.793352 -0.608763 0.60876 -0.793354 37.3535 163.045)"/>
</clipPath>
<clipPath id="clip28_178_12349">
<rect width="5.39999" height="180" fill="white" transform="matrix(-0.707105 -0.707108 0.707106 -0.707108 28.2695 155.549)"/>
</clipPath>
<clipPath id="clip29_178_12349">
<rect width="5.39999" height="179.999" fill="white" transform="matrix(-0.60876 -0.793355 0.793352 -0.608763 20.2422 146.93)"/>
</clipPath>
<clipPath id="clip30_178_12349">
<rect width="5.39999" height="179.999" fill="white" transform="matrix(-0.499999 -0.866026 0.866025 -0.500001 13.4077 137.338)"/>
</clipPath>
<clipPath id="clip31_178_12349">
<rect width="5.39999" height="179.999" fill="white" transform="matrix(-0.382682 -0.92388 0.923879 -0.382684 7.88428 126.936)"/>
</clipPath>
<clipPath id="clip32_178_12349">
<rect width="5.4" height="179.999" fill="white" transform="matrix(-0.258818 -0.965926 0.965926 -0.25882 3.76562 115.902)"/>
</clipPath>
<clipPath id="clip33_178_12349">
<rect width="5.4" height="179.999" fill="white" transform="translate(1.12256 104.424) rotate(-97.5)"/>
</clipPath>
<clipPath id="clip34_178_12349">
<rect width="5.4" height="179.999" fill="white" transform="translate(0 92.6997) rotate(-90)"/>
</clipPath>
<clipPath id="clip35_178_12349">
<rect width="5.4" height="179.999" fill="white" transform="translate(0.41748 80.9297) rotate(-82.5)"/>
</clipPath>
<clipPath id="clip36_178_12349">
<rect width="5.39999" height="179.999" fill="white" transform="matrix(0.258818 -0.965926 0.965926 0.25882 2.36768 69.3145)"/>
</clipPath>
<clipPath id="clip37_178_12349">
<rect width="5.39999" height="179.999" fill="white" transform="matrix(0.382682 -0.92388 0.923879 0.382685 5.81738 58.0532)"/>
</clipPath>
<clipPath id="clip38_178_12349">
<rect width="5.39999" height="179.999" fill="white" transform="matrix(0.499999 -0.866026 0.866025 0.500001 10.708 47.3384)"/>
</clipPath>
<clipPath id="clip39_178_12349">
<rect width="5.39999" height="179.999" fill="white" transform="matrix(0.60876 -0.793354 0.793352 0.608763 16.9546 37.3535)"/>
</clipPath>
<clipPath id="clip40_178_12349">
<rect width="5.39999" height="180" fill="white" transform="matrix(0.707106 -0.707108 0.707105 0.707108 24.4512 28.27)"/>
</clipPath>
<clipPath id="clip41_178_12349">
<rect width="5.39998" height="180" fill="white" transform="matrix(0.793352 -0.608763 0.60876 0.793355 33.0693 20.2422)"/>
</clipPath>
<clipPath id="clip42_178_12349">
<rect width="5.39998" height="180" fill="white" transform="matrix(0.866025 -0.500001 0.499999 0.866026 42.6616 13.4077)"/>
</clipPath>
<clipPath id="clip43_178_12349">
<rect width="5.39998" height="180" fill="white" transform="matrix(0.923879 -0.382685 0.382682 0.92388 53.064 7.88428)"/>
</clipPath>
<clipPath id="clip44_178_12349">
<rect width="5.39998" height="180" fill="white" transform="matrix(0.965926 -0.25882 0.258818 0.965926 64.0981 3.76562)"/>
</clipPath>
<clipPath id="clip45_178_12349">
<rect width="5.39998" height="180" fill="white" transform="translate(75.5757 1.12256) rotate(-7.50003)"/>
</clipPath>
<clipPath id="clip46_178_12349">
<rect width="5.39998" height="180" fill="white" transform="translate(99.0708 0.41748) rotate(7.50006)"/>
</clipPath>
</defs>
</svg>
