<svg width="180" height="180" viewBox="0 0 180 180" fill="none" xmlns="http://www.w3.org/2000/svg">
<path opacity="0.0344828" d="M77.5946 111.271C59.0767 96.1017 43.7953 80.6911 34.0543 68.0548C29.179 61.7303 25.726 56.145 23.9353 51.6622C23.0399 49.4203 22.5801 47.5027 22.5389 45.9358C22.4979 44.3771 22.8697 43.2295 23.5666 42.4186C24.2635 41.6077 25.3566 41.0511 26.9362 40.8198C28.5241 40.5873 30.5381 40.6964 32.9553 41.168C37.7884 42.1111 44.0229 44.4602 51.2495 48.0492C65.6882 55.2201 83.8871 67.2365 102.405 82.4056C120.923 97.5748 136.205 112.985 145.946 125.622C150.822 131.946 154.274 137.532 156.065 142.015C156.96 144.257 157.42 146.174 157.461 147.741C157.502 149.3 157.13 150.447 156.433 151.258C155.736 152.069 154.643 152.626 153.064 152.857C151.476 153.09 149.462 152.981 147.045 152.509C142.212 151.566 135.978 149.216 128.751 145.627C114.313 138.456 96.1125 126.44 77.5946 111.271Z" stroke="#CFCFCF" stroke-opacity="0.7" stroke-width="2"/>
<path opacity="0.0689655" d="M76.3519 109.478C59.2591 92.7913 45.4118 76.1398 36.8363 62.7233C32.5442 56.0083 29.603 50.1505 28.2195 45.5329C27.5277 43.2236 27.2409 41.2737 27.3398 39.7091C27.4382 38.1532 27.912 37.0412 28.68 36.2914C29.4482 35.5415 30.5875 35.0783 32.1817 34.9823C33.7843 34.8858 35.781 35.1664 38.1465 35.8419C42.8765 37.1924 48.8767 40.0637 55.7552 44.2539C69.4982 52.6256 86.555 66.1439 103.648 82.8306C120.741 99.5175 134.589 116.169 143.164 129.586C147.456 136.301 150.397 142.159 151.781 146.776C152.473 149.085 152.759 151.034 152.661 152.599C152.562 154.155 152.088 155.268 151.32 156.018C150.552 156.768 149.413 157.23 147.819 157.326C146.216 157.422 144.219 157.143 141.854 156.468C137.124 155.117 131.124 152.246 124.245 148.056C110.502 139.684 93.4449 126.165 76.3519 109.478Z" stroke="#CFCFCF" stroke-opacity="0.7" stroke-width="2"/>
<path opacity="0.103448" d="M75.2127 107.584C59.6748 89.5063 47.3663 71.74 40.0215 57.6453C36.3453 50.5908 33.9396 44.5054 32.9738 39.7882C32.4908 37.4291 32.3785 35.4634 32.6166 33.9132C32.8535 32.3713 33.4252 31.3023 34.259 30.6193C35.0927 29.9363 36.2705 29.5723 37.867 29.6123C39.4721 29.6525 41.4356 30.1019 43.7315 30.9759C48.3224 32.7236 54.0434 36.0931 60.5215 40.8524C73.4644 50.3613 89.2493 65.2799 104.787 83.3574C120.325 101.435 132.633 119.201 139.978 133.295C143.654 140.35 146.06 146.436 147.026 151.153C147.509 153.512 147.621 155.477 147.383 157.027C147.146 158.569 146.575 159.639 145.741 160.322C144.907 161.005 143.729 161.368 142.132 161.328C140.527 161.288 138.564 160.839 136.269 159.965C131.678 158.218 125.956 154.847 119.478 150.088C106.535 140.579 90.7505 125.661 75.2127 107.584Z" stroke="#CFCFCF" stroke-opacity="0.7" stroke-width="2"/>
<path opacity="0.137931" d="M74.1857 105.597C60.3211 86.2663 49.6462 67.521 43.5878 52.8556C40.5556 45.5155 38.7019 39.249 38.1609 34.468C37.8904 32.0771 37.9545 30.1088 38.3301 28.5847C38.7037 27.0692 39.3683 26.0516 40.2613 25.441C41.1544 24.8305 42.3618 24.5685 43.9486 24.7441C45.544 24.9208 47.4606 25.5352 49.6695 26.6011C54.0864 28.7326 59.4843 32.5764 65.5125 37.8684C77.5568 48.4421 91.9493 64.6461 105.814 83.9765C119.679 103.307 130.353 122.052 136.412 136.718C139.444 144.058 141.298 150.324 141.839 155.105C142.109 157.496 142.045 159.464 141.67 160.988C141.296 162.504 140.631 163.522 139.738 164.133C138.845 164.743 137.638 165.005 136.051 164.829C134.456 164.652 132.539 164.038 130.33 162.972C125.913 160.841 120.515 156.997 114.487 151.705C102.443 141.131 88.0504 124.927 74.1857 105.597Z" stroke="#CFCFCF" stroke-opacity="0.7" stroke-width="2"/>
<path opacity="0.172414" d="M73.2794 103.527C61.1934 83.0909 52.2336 63.5089 47.5078 48.3843C45.1425 40.8144 43.8548 34.4149 43.7428 29.6065C43.6867 27.2022 43.9259 25.2473 44.4362 23.761C44.9436 22.2829 45.6973 21.3243 46.6431 20.7911C47.5889 20.258 48.816 20.1002 50.3811 20.4102C51.9548 20.7219 53.8083 21.4971 55.9134 22.7468C60.1229 25.2457 65.1568 29.5335 70.6895 35.3183C81.7436 46.8761 94.635 64.2421 106.721 84.6783C118.807 105.115 127.767 124.697 132.493 139.822C134.858 147.392 136.145 153.792 136.257 158.6C136.313 161.005 136.074 162.959 135.564 164.446C135.056 165.924 134.303 166.882 133.357 167.416C132.411 167.949 131.184 168.106 129.619 167.796C128.045 167.485 126.192 166.709 124.087 165.46C119.877 162.961 114.844 158.673 109.311 152.888C98.2571 141.33 85.3654 123.963 73.2794 103.527Z" stroke="#CFCFCF" stroke-opacity="0.7" stroke-width="2"/>
<path opacity="0.206897" d="M72.5 101.386C62.2846 79.9991 55.1072 59.7295 51.7497 44.2608C50.0692 36.5185 49.3581 30.0338 49.6757 25.2346C49.8345 22.8348 50.2473 20.9081 50.8884 19.4709C51.5259 18.0416 52.3624 17.15 53.3536 16.6987C54.3449 16.2474 55.583 16.1946 57.1144 16.6366C58.6542 17.0811 60.4316 18.0109 62.4166 19.4346C66.3867 22.2819 71.0181 26.9821 76.0131 33.2154C85.993 45.6694 97.2848 64.0661 107.5 85.4525C117.716 106.839 124.893 127.109 128.25 142.577C129.931 150.32 130.642 156.804 130.324 161.603C130.166 164.003 129.753 165.93 129.112 167.367C128.474 168.797 127.637 169.689 126.646 170.14C125.654 170.591 124.417 170.643 122.886 170.202C121.346 169.757 119.569 168.827 117.584 167.404C113.613 164.556 108.982 159.856 103.987 153.623C94.0071 141.169 82.7155 122.772 72.5 101.386Z" stroke="#CFCFCF" stroke-opacity="0.7" stroke-width="2"/>
<path opacity="0.241379" d="M71.8543 99.1832C63.5872 77.0092 58.246 56.2062 56.2823 40.511C55.2995 32.6554 55.1708 26.1351 55.9156 21.3815C56.6753 16.5328 58.2742 13.9249 60.3437 13.1895C62.4132 12.4545 65.3545 13.4493 69.1287 16.6866C72.8292 19.8606 77.0238 24.9362 81.4433 31.5707C90.2732 44.8262 99.8789 64.1139 108.146 86.2879C116.413 108.462 121.754 129.264 123.718 144.959C124.701 152.815 124.829 159.335 124.084 164.089C123.325 168.937 121.727 171.545 119.657 172.28C117.588 173.016 114.646 172.021 110.871 168.784C107.171 165.61 102.976 160.534 98.5567 153.9C89.7269 140.644 80.1214 121.357 71.8543 99.1832Z" stroke="#CFCFCF" stroke-opacity="0.7" stroke-width="2"/>
<path opacity="0.275862" d="M71.3461 96.931C65.0901 74.1381 61.6266 52.9604 61.0716 37.1582C60.7938 29.2492 61.2475 22.7434 62.4138 18.0716C63.6033 13.307 65.4287 10.8443 67.5579 10.2874C69.687 9.73043 72.5293 10.9722 75.9997 14.5178C79.4024 17.9944 83.1274 23.4071 86.9376 30.3921C94.5504 44.3481 102.397 64.3791 108.653 87.1721C114.909 109.965 118.373 131.143 118.928 146.945C119.206 154.854 118.752 161.361 117.586 166.032C116.396 170.797 114.571 173.26 112.442 173.817C110.313 174.374 107.47 173.132 104 169.586C100.597 166.11 96.8722 160.696 93.0619 153.711C85.4492 139.755 77.6021 119.724 71.3461 96.931Z" stroke="#CFCFCF" stroke-opacity="0.7" stroke-width="2"/>
<path opacity="0.310345" d="M70.981 94.6424C66.7837 71.4039 65.2247 50.0118 66.0826 34.2227C66.5121 26.3202 67.5443 19.8778 69.1232 15.3232C70.7332 10.6789 72.7713 8.38029 74.9434 8.00639C77.1155 7.63251 79.836 9.11199 82.9761 12.9386C86.0554 16.6913 89.2825 22.4006 92.4545 29.6831C98.7923 44.2335 104.822 64.8561 109.019 88.0946C113.216 111.333 114.775 132.724 113.917 148.513C113.488 156.416 112.456 162.858 110.877 167.413C109.267 172.057 107.229 174.357 105.057 174.731C102.885 175.104 100.164 173.624 97.024 169.797C93.9447 166.045 90.7176 160.335 87.5455 153.053C81.2078 138.503 75.1783 117.881 70.981 94.6424Z" stroke="#CFCFCF" stroke-opacity="0.7" stroke-width="2"/>
<path opacity="0.344828" d="M70.7606 92.3272C68.654 68.8204 69.0107 47.378 71.2749 31.7223C72.4082 23.8863 74.0112 17.556 75.9907 13.1532C78.009 8.66382 80.245 6.54651 82.4431 6.35877C84.6412 6.17103 87.2198 7.87712 90.0061 11.9561C92.7386 15.9565 95.4433 21.9189 97.9532 29.4437C102.968 44.4777 107.133 65.5339 109.24 89.0407C111.346 112.548 110.99 133.991 108.725 149.647C107.592 157.482 105.989 163.813 104.01 168.216C101.991 172.705 99.7554 174.822 97.5573 175.01C95.3592 175.198 92.7806 173.492 89.9943 169.413C87.2618 165.412 84.5571 159.45 82.0472 151.925C77.0327 136.891 72.8673 115.834 70.7606 92.3272Z" stroke="#CFCFCF" stroke-opacity="0.7" stroke-width="2"/>
<path opacity="0.37931" d="M70.687 90.0005C70.687 66.4037 72.9566 45.073 76.6099 29.6694C78.4383 21.9599 80.6004 15.7904 82.9653 11.5728C85.3767 7.27233 87.7937 5.35303 90.0005 5.35303C92.2072 5.3532 94.6234 7.27252 97.0347 11.5728C99.3996 15.7904 101.563 21.9598 103.391 29.6694C107.044 45.073 109.313 66.4038 109.313 90.0005C109.313 113.597 107.044 134.928 103.391 150.332C101.563 158.041 99.3996 164.211 97.0347 168.428C94.6234 172.728 92.2072 174.648 90.0005 174.648C87.7937 174.648 85.3767 172.729 82.9653 168.428C80.6004 164.211 78.4384 158.041 76.6099 150.332C72.9566 134.928 70.687 113.597 70.687 90.0005Z" stroke="#CFCFCF" stroke-opacity="0.7" stroke-width="2"/>
<path opacity="0.413793" d="M70.7604 87.6726C72.8671 64.1659 77.0324 43.1097 82.0469 28.0757C84.5568 20.5509 87.2615 14.5885 89.994 10.5881C92.7803 6.50911 95.3589 4.80302 97.557 4.99076C99.7551 5.1785 101.991 7.29581 104.009 11.7852C105.989 16.188 107.592 22.5183 108.725 30.3543C110.989 46.01 111.346 67.4524 109.239 90.9591C107.133 114.466 102.967 135.523 97.9529 150.557C95.443 158.082 92.7383 164.044 90.0058 168.045C87.2195 172.124 84.6409 173.83 82.4428 173.642C80.2447 173.454 78.0088 171.337 75.9904 166.848C74.0109 162.445 72.4079 156.114 71.2746 148.279C69.0104 132.623 68.6538 111.18 70.7604 87.6726Z" stroke="#CFCFCF" stroke-opacity="0.7" stroke-width="2"/>
<path opacity="0.448276" d="M70.9807 85.3586C75.178 62.1201 81.2076 41.4976 87.5454 26.9472C90.7175 19.6646 93.9446 13.9554 97.0239 10.2027C100.164 6.37604 102.884 4.89654 105.057 5.27044C107.229 5.64436 109.267 7.94298 110.877 12.5873C112.456 17.1418 113.488 23.5843 113.917 31.4868C114.775 47.2758 113.216 68.668 109.019 91.9064C104.822 115.145 98.7921 135.767 92.4544 150.317C89.2823 157.6 86.0552 163.309 82.9759 167.061C79.8358 170.888 77.1152 172.369 74.9431 171.995C72.7709 171.621 70.7331 169.321 69.123 164.677C67.5442 160.122 66.5119 153.68 66.0825 145.777C65.2246 129.988 66.7835 108.597 70.9807 85.3586Z" stroke="#CFCFCF" stroke-opacity="0.7" stroke-width="2"/>
<path opacity="0.482759" d="M71.3466 83.069C77.6026 60.276 85.4496 40.245 93.0623 26.289C96.8726 19.304 100.598 13.8913 104 10.4147C107.471 6.86906 110.313 5.62732 112.442 6.18427C114.571 6.74123 116.397 9.20399 117.586 13.9685C118.752 18.6403 119.206 25.1461 118.928 33.0551C118.373 48.8573 114.91 70.035 108.654 92.8279C102.398 115.621 94.5508 135.652 86.9381 149.608C83.1278 156.593 79.4027 162.007 75.9999 165.483C72.5296 169.029 69.6872 170.271 67.5581 169.714C65.429 169.157 63.6035 166.694 62.414 161.929C61.2477 157.258 60.7943 150.751 61.0721 142.842C61.6271 127.04 65.0906 105.862 71.3466 83.069Z" stroke="#CFCFCF" stroke-opacity="0.7" stroke-width="2"/>
<path opacity="0.517241" d="M71.854 80.8177C80.1211 58.6436 89.7268 39.3559 98.5567 26.1005C102.976 19.466 107.171 14.3904 110.871 11.2163C114.646 7.97878 117.588 6.98427 119.657 7.71962C121.727 8.4552 123.325 11.063 124.084 15.9113C124.829 20.6648 124.701 27.1851 123.718 35.0408C121.754 50.7359 116.413 71.5389 108.146 93.713C99.8787 115.887 90.2731 135.174 81.4433 148.429C77.0238 155.064 72.8292 160.139 69.1288 163.313C65.3545 166.551 62.4132 167.546 60.3437 166.81C58.2742 166.075 56.6753 163.467 55.9156 158.619C55.1708 153.865 55.2995 147.345 56.2823 139.489C58.246 123.794 63.587 102.992 71.854 80.8177Z" stroke="#CFCFCF" stroke-opacity="0.7" stroke-width="2"/>
<path opacity="0.551724" d="M72.4999 78.6151C82.7153 57.2286 94.007 38.832 103.987 26.378C108.982 20.1446 113.613 15.4445 117.583 12.5971C119.569 11.1733 121.346 10.2436 122.886 9.79916C124.417 9.3572 125.654 9.40965 126.646 9.86081C127.637 10.3121 128.474 11.2041 129.112 12.6334C129.753 14.0707 130.166 15.9975 130.324 18.3972C130.642 23.1964 129.931 29.6812 128.25 37.4233C124.893 52.8921 117.715 73.1617 107.5 94.5481C97.2846 115.935 85.9929 134.331 76.0129 146.785C71.0178 153.019 66.3866 157.719 62.4165 160.566C60.4313 161.99 58.6541 162.92 57.1143 163.364C55.5828 163.806 54.3448 163.753 53.3534 163.302C52.3622 162.851 51.5257 161.959 50.8882 160.53C50.2472 159.093 49.8344 157.166 49.6755 154.766C49.3579 149.967 50.0691 143.482 51.7496 135.74C55.1071 120.271 62.2845 100.002 72.4999 78.6151Z" stroke="#CFCFCF" stroke-opacity="0.7" stroke-width="2"/>
<path opacity="0.586207" d="M73.2798 76.4725C85.3658 56.0363 98.2571 38.6703 109.311 27.1125C114.844 21.3278 119.877 17.0394 124.087 14.5405C126.191 13.2909 128.045 12.5157 129.619 12.2039C131.184 11.8939 132.411 12.0518 133.357 12.5848C134.303 13.1179 135.056 14.0765 135.564 15.5547C136.074 17.041 136.313 18.9957 136.257 21.4002C136.145 26.2086 134.858 32.6084 132.493 40.1785C127.767 55.3031 118.807 74.8851 106.721 95.3212C94.6353 115.758 81.7437 133.124 70.6895 144.682C65.1567 150.467 60.1229 154.755 55.9133 157.254C53.8083 158.503 51.9547 159.278 50.3811 159.59C48.816 159.9 47.5889 159.742 46.643 159.209C45.6973 158.676 44.9436 157.717 44.4361 156.239C43.9259 154.753 43.6867 152.798 43.7427 150.394C43.8548 145.585 45.1425 139.186 47.5078 131.616C52.2336 116.491 61.1938 96.9088 73.2798 76.4725Z" stroke="#CFCFCF" stroke-opacity="0.7" stroke-width="2"/>
<path opacity="0.62069" d="M74.1861 74.4035C88.0508 55.0731 102.443 38.8691 114.488 28.2955C120.516 23.0033 125.914 19.1596 130.331 17.0281C132.539 15.9622 134.456 15.3478 136.051 15.1711C137.638 14.9955 138.845 15.2572 139.738 15.8675C140.631 16.478 141.296 17.496 141.67 19.0117C142.046 20.5358 142.11 22.5041 141.839 24.895C141.298 29.676 139.444 35.9425 136.412 43.2826C130.354 57.948 119.679 76.6933 105.814 96.0236C91.9496 115.354 77.5572 131.558 65.5129 142.132C59.4847 147.424 54.0868 151.268 49.6698 153.399C47.4609 154.465 45.5444 155.079 43.9489 155.256C42.3621 155.432 41.1547 155.17 40.2616 154.559C39.3687 153.949 38.7041 152.931 38.3305 151.415C37.9548 149.891 37.8907 147.923 38.1613 145.532C38.7023 140.751 40.5559 134.485 43.5881 127.145C49.6465 112.479 60.3214 93.7339 74.1861 74.4035Z" stroke="#CFCFCF" stroke-opacity="0.7" stroke-width="2"/>
<path opacity="0.655172" d="M75.2128 72.4166C90.7508 54.3391 106.536 39.4205 119.479 29.9116C125.957 25.1523 131.678 21.7828 136.269 20.0351C138.564 19.1611 140.528 18.7117 142.133 18.6715C143.73 18.6315 144.907 18.9955 145.741 19.6785C146.575 20.3614 147.147 21.4305 147.384 22.9724C147.622 24.5226 147.509 26.4884 147.026 28.8474C146.06 33.5646 143.655 39.65 139.979 46.7045C132.634 60.7992 120.325 78.5655 104.787 96.643C89.2496 114.72 73.465 129.638 60.5222 139.147C54.0441 143.907 48.3225 147.277 43.7316 149.024C41.436 149.898 39.4727 150.347 37.8677 150.387C36.2712 150.427 35.0928 150.064 34.2591 149.381C33.4253 148.698 32.8542 147.628 32.6173 146.086C32.3793 144.536 32.491 142.571 32.9739 140.212C33.9397 135.495 36.346 129.409 40.0222 122.354C47.367 108.26 59.6751 90.4939 75.2128 72.4166Z" stroke="#CFCFCF" stroke-opacity="0.7" stroke-width="2"/>
<path opacity="0.689655" d="M76.3522 70.5221C93.445 53.8355 110.502 40.3171 124.245 31.9454C131.123 27.7553 137.124 24.884 141.854 23.5334C144.219 22.8579 146.216 22.578 147.819 22.6745C149.413 22.7706 150.552 23.2331 151.32 23.9829C152.088 24.7328 152.563 25.8451 152.661 27.4013C152.76 28.9659 152.472 30.9152 151.78 33.2245C150.397 37.8421 147.456 43.6997 143.164 50.4148C134.588 63.8313 120.741 80.4829 103.648 97.1696C86.5551 113.856 69.4979 127.375 55.7548 135.747C48.8762 139.937 42.8761 142.808 38.1461 144.159C35.7808 144.834 33.7845 145.114 32.182 145.018C30.5879 144.922 29.4478 144.459 28.6797 143.709C27.9116 142.96 27.4385 141.847 27.3401 140.291C27.2412 138.727 27.5273 136.777 28.2192 134.468C29.6026 129.85 32.5437 123.993 36.8359 117.278C45.4114 103.861 59.2592 87.209 76.3522 70.5221Z" stroke="#CFCFCF" stroke-opacity="0.7" stroke-width="2"/>
<path opacity="0.724138" d="M77.5949 68.7295C96.1127 53.5603 114.312 41.5447 128.751 34.3739C135.977 30.7849 142.211 28.435 147.044 27.4919C149.461 27.0203 151.476 26.9112 153.063 27.1437C154.643 27.375 155.736 27.9317 156.433 28.7425C157.13 29.5534 157.502 30.7009 157.461 32.2597C157.42 33.8267 156.96 35.7441 156.064 37.9861C154.274 42.4689 150.821 48.0549 145.946 54.3794C136.205 67.0157 120.923 82.4256 102.405 97.5947C83.8872 112.764 65.6878 124.781 51.2491 131.952C44.0224 135.541 37.7879 137.89 32.9548 138.833C30.5378 139.305 28.5235 139.414 26.9357 139.181C25.3564 138.95 24.2638 138.393 23.5669 137.582C22.87 136.771 22.4975 135.624 22.5384 134.065C22.5796 132.498 23.0394 130.581 23.9349 128.339C25.7254 123.856 29.1785 118.271 34.0539 111.946C43.7949 99.3098 59.0769 83.8987 77.5949 68.7295Z" stroke="#CFCFCF" stroke-opacity="0.7" stroke-width="2"/>
<path opacity="0.758621" d="M78.9316 67.0465C98.7336 53.5104 117.937 43.0886 132.962 37.1734C140.481 34.2128 146.902 32.4019 151.801 31.8735C154.251 31.6093 156.268 31.6724 157.829 32.0391C159.381 32.4038 160.419 33.0514 161.04 33.9167C161.661 34.7822 161.93 35.9564 161.75 37.5058C161.569 39.0632 160.939 40.9339 159.847 43.0911C157.663 47.405 153.724 52.676 148.302 58.5619C137.47 70.3217 120.87 84.3739 101.068 97.91C81.2663 111.446 62.0628 121.868 47.0384 127.783C39.5184 130.744 33.0978 132.554 28.1984 133.082C25.7484 133.346 23.7324 133.284 22.1714 132.917C20.6184 132.553 19.5802 131.904 18.9594 131.039C18.3388 130.174 18.0704 129 18.2504 127.451C18.4314 125.893 19.0603 124.022 20.1526 121.865C22.3369 117.551 26.2759 112.28 31.6975 106.395C42.5299 94.6348 59.1295 80.5826 78.9316 67.0465Z" stroke="#CFCFCF" stroke-opacity="0.7" stroke-width="2"/>
<path opacity="0.793103" d="M80.3526 65.4811C101.288 53.6814 121.349 44.9325 136.844 40.318C144.6 38.0083 151.159 36.751 156.087 36.6416C158.552 36.5868 160.555 36.8208 162.078 37.3189C163.592 37.8145 164.566 38.5483 165.106 39.4616C165.647 40.375 165.81 41.5654 165.493 43.0936C165.174 44.6297 164.379 46.4404 163.098 48.4969C160.537 52.6089 156.143 57.5251 150.216 62.9275C138.374 73.7212 120.583 86.3071 99.6476 98.1069C78.7121 109.907 58.6508 118.656 43.1549 123.271C35.3991 125.58 28.8405 126.838 23.9121 126.947C21.4476 127.002 19.4447 126.767 17.9225 126.269C16.408 125.774 15.4331 125.04 14.8929 124.127C14.3528 123.214 14.1897 122.023 14.5074 120.494C14.8267 118.958 15.6201 117.148 16.9009 115.092C19.4621 110.98 23.8568 106.063 29.7836 100.661C41.6251 89.8673 59.4172 77.281 80.3526 65.4811Z" stroke="#CFCFCF" stroke-opacity="0.7" stroke-width="2"/>
<path opacity="0.827586" d="M81.8465 64.0401C103.756 54.0664 124.522 47.0576 140.371 43.7791C148.304 42.1381 154.95 41.4433 159.87 41.7536C162.33 41.9088 164.305 42.3128 165.777 42.9385C167.241 43.5611 168.146 44.3744 168.602 45.3288C169.058 46.2831 169.114 47.482 168.661 48.9773C168.206 50.4804 167.254 52.2166 165.794 54.1565C162.875 58.0352 158.058 62.5589 151.671 67.4366C138.911 77.1819 120.063 88.2066 98.1538 98.1804C76.2444 108.154 55.4784 115.163 39.6291 118.441C31.6963 120.082 25.0502 120.777 20.1304 120.467C17.6699 120.312 15.6954 119.908 14.2233 119.282C12.7589 118.659 11.8542 117.847 11.3983 116.893C10.9425 115.938 10.8859 114.739 11.3388 113.243C11.7941 111.74 12.7463 110.004 14.2061 108.064C17.1249 104.185 21.9422 99.6616 28.3289 94.7839C41.0893 85.0385 59.9371 74.0139 81.8465 64.0401Z" stroke="#CFCFCF" stroke-opacity="0.7" stroke-width="2"/>
<path opacity="0.862069" d="M83.4013 62.7294C106.118 54.6576 127.432 49.4419 143.514 47.5243C151.563 46.5646 158.246 46.4383 163.12 47.1661C165.558 47.5301 167.489 48.1005 168.9 48.8491C170.303 49.594 171.13 50.4805 171.499 51.4686C171.867 52.4566 171.817 53.6549 171.232 55.1062C170.645 56.5648 169.541 58.2138 167.913 60.0223C164.659 63.6381 159.456 67.7352 152.658 72.0509C139.076 80.6737 119.314 90.053 96.5977 98.1248C73.8811 106.197 52.5679 111.412 36.4859 113.33C28.4367 114.289 21.7537 114.416 16.88 113.688C14.4423 113.324 12.5109 112.753 11.1003 112.005C9.6969 111.26 8.86956 110.373 8.50115 109.385C8.13277 108.397 8.18289 107.199 8.76751 105.748C9.35515 104.289 10.4592 102.64 12.0868 100.832C15.341 97.2157 20.5438 93.1187 27.3417 88.803C40.9238 80.1802 60.6848 70.8011 83.4013 62.7294Z" stroke="#CFCFCF" stroke-opacity="0.7" stroke-width="2"/>
<path opacity="0.896552" d="M85.0071 61.5525C108.358 55.4443 130.056 52.0623 146.248 51.5203C154.353 51.2491 161.023 51.6912 165.813 52.831C168.209 53.4011 170.082 54.1341 171.421 54.9998C172.752 55.8613 173.496 56.8144 173.775 57.8289C174.053 58.8434 173.897 60.0321 173.185 61.4281C172.469 62.8312 171.223 64.3803 169.44 66.0436C165.875 69.369 160.325 73.0076 153.167 76.7287C138.867 84.1631 118.344 91.8254 94.9927 97.9336C71.6417 104.042 49.9439 107.424 33.7515 107.966C25.6473 108.237 18.9781 107.795 14.1876 106.655C11.7916 106.085 9.91837 105.352 8.57998 104.486C7.24825 103.625 6.50337 102.672 6.22489 101.657C5.94642 100.643 6.10352 99.4539 6.81561 98.0578C7.53127 96.6547 8.77817 95.1055 10.5612 93.4423C14.1262 90.1169 19.6752 86.4784 26.8326 82.7574C41.1332 75.323 61.6562 67.6607 85.0071 61.5525Z" stroke="#CFCFCF" stroke-opacity="0.7" stroke-width="2"/>
<path opacity="0.931035" d="M86.6507 60.5139C110.458 56.4157 132.376 54.8929 148.556 55.7307C156.653 56.1501 163.258 57.1578 167.929 58.7009C170.265 59.4728 172.065 60.3625 173.321 61.3389C174.571 62.3105 175.227 63.323 175.414 64.3566C175.601 65.39 175.338 66.5601 174.504 67.8901C173.666 69.227 172.286 70.6642 170.361 72.1695C166.513 75.1791 160.66 78.3313 153.197 81.4291C138.287 87.6187 117.158 93.5059 93.3499 97.6041C69.5422 101.702 47.6243 103.225 31.4449 102.387C23.3471 101.968 16.7427 100.96 12.072 99.4171C9.73584 98.6452 7.93557 97.7555 6.67956 96.7791C5.42993 95.8077 4.77343 94.7958 4.58666 93.7624C4.39998 92.7289 4.66225 91.5581 5.49629 90.2279C6.33449 88.891 7.71451 87.4538 9.63936 85.9485C13.4877 82.9389 19.3408 79.7867 26.8033 76.6889C41.7135 70.4993 62.843 64.6121 86.6507 60.5139Z" stroke="#CFCFCF" stroke-opacity="0.7" stroke-width="2"/>
<path opacity="0.965517" d="M88.3184 59.6163C112.401 57.5594 134.372 57.9075 150.415 60.1188C158.445 61.2256 164.935 62.7918 169.45 64.7265C171.708 65.6942 173.423 66.7328 174.587 67.8123C175.745 68.8864 176.308 69.9507 176.402 70.9955C176.495 72.0404 176.13 73.1839 175.181 74.4381C174.226 75.6985 172.723 77.0129 170.671 78.3487C166.568 81.0195 160.456 83.6621 152.745 86.1133C137.339 91.0106 115.764 95.078 91.6808 97.1349C67.5979 99.1918 45.6279 98.8436 29.5849 96.6324C21.5551 95.5256 15.0652 93.9594 10.5499 92.0246C8.29157 91.057 6.57711 90.0174 5.41311 88.9379C4.25498 87.8638 3.69194 86.7995 3.5983 85.7547C3.50475 84.7098 3.86976 83.5663 4.81932 82.3121C5.7736 81.0518 7.27731 79.7382 9.32912 78.4025C13.4317 75.7317 19.5444 73.0891 27.2553 70.6379C42.6613 65.7406 64.2356 61.6733 88.3184 59.6163Z" stroke="#CFCFCF" stroke-opacity="0.7" stroke-width="2"/>
<path d="M90.0005 58.8608C114.175 58.8609 136.03 61.0762 151.815 64.644C159.715 66.4298 166.041 68.5424 170.367 70.854C172.53 72.0102 174.145 73.1913 175.208 74.3657C176.267 75.5344 176.732 76.6431 176.732 77.6919C176.732 78.7405 176.266 79.8486 175.208 81.0171C174.145 82.1915 172.53 83.3726 170.367 84.5288C166.041 86.8404 159.715 88.953 151.815 90.7388C136.03 94.3066 114.175 96.5219 90.0005 96.522C65.8257 96.522 43.9698 94.3066 28.1851 90.7388C20.2849 88.9531 13.9597 86.8403 9.63428 84.5288C7.47076 83.3726 5.85475 82.1916 4.7915 81.0171C3.73366 79.8486 3.26821 78.7405 3.26807 77.6919C3.26807 76.6431 3.73349 75.5344 4.7915 74.3657C5.85475 73.1912 7.47076 72.0102 9.63428 70.854C13.9597 68.5426 20.2849 66.4298 28.1851 64.644C43.9698 61.0762 65.8257 58.8608 90.0005 58.8608Z" stroke="#CFCFCF" stroke-opacity="0.7" stroke-width="2"/>
</svg>
