<svg width="180" height="181" viewBox="0 0 180 181" fill="none" xmlns="http://www.w3.org/2000/svg">
<path opacity="0.0526316" d="M13.9851 145.983C17.7831 151.196 29.9219 159.918 48.0932 153.108C70.8072 144.596 79.5921 122.032 99.8647 110.332C114.827 101.697 155.033 88.7354 178.152 103.058" stroke="#CFCFCF" stroke-opacity="0.7" stroke-width="1.45842"/>
<path opacity="0.105263" d="M10.2386 135.056C13.4876 140.649 24.6761 150.632 43.4379 145.819C66.8901 139.803 77.9132 118.31 99.2603 108.86C115.016 101.886 156.315 93.33 177.856 110.067" stroke="#CFCFCF" stroke-opacity="0.7" stroke-width="1.45842"/>
<path opacity="0.157895" d="M7.40855 123.981C10.073 129.894 20.1886 141.029 39.3353 138.265C63.2687 134.811 76.4093 114.624 98.5971 107.528C114.973 102.291 156.913 98.2348 176.639 117.203" stroke="#CFCFCF" stroke-opacity="0.7" stroke-width="1.45842"/>
<path opacity="0.210526" d="M5.50488 112.86C7.55556 119.027 16.4874 131.192 35.8093 130.508C59.9616 129.653 75.0759 110.994 97.8611 106.329C114.678 102.886 156.799 103.374 174.496 124.366" stroke="#CFCFCF" stroke-opacity="0.7" stroke-width="1.45842"/>
<path opacity="0.263158" d="M4.52602 101.789C5.94045 108.144 13.5907 121.205 32.876 122.608C56.9828 124.362 73.905 107.435 97.0381 105.252C114.112 103.642 155.952 108.669 171.425 131.454" stroke="#CFCFCF" stroke-opacity="0.7" stroke-width="1.45842"/>
<path opacity="0.315789" d="M4.46307 90.8708C5.22578 97.3437 11.5106 111.158 30.5481 114.633C54.3451 118.976 72.8898 103.967 96.1174 104.29C113.261 104.53 154.363 114.041 167.442 138.369" stroke="#CFCFCF" stroke-opacity="0.7" stroke-width="1.45842"/>
<path opacity="0.368421" d="M5.29518 80.2017C5.39779 86.7214 10.2483 101.138 28.8295 106.646C52.0559 113.532 72.0201 100.604 95.0876 103.431C112.113 105.517 152.026 119.408 162.568 145.013" stroke="#CFCFCF" stroke-opacity="0.7" stroke-width="1.45842"/>
<path opacity="0.421053" d="M6.99163 69.8784C6.43303 76.3735 9.79613 91.234 27.7173 98.7158C50.1188 108.068 71.2836 97.3635 93.9383 102.662C110.659 106.573 148.946 124.691 156.835 151.293" stroke="#CFCFCF" stroke-opacity="0.7" stroke-width="1.45842"/>
<path opacity="0.473684" d="M9.51407 59.9909C8.30037 66.3901 10.1392 81.5318 27.2041 90.905C48.5352 102.622 70.6687 94.2577 92.6624 101.97C108.895 107.662 145.136 129.81 150.287 157.116" stroke="#CFCFCF" stroke-opacity="0.7" stroke-width="1.45842"/>
<path opacity="0.526316" d="M12.8118 50.626C10.9563 56.8593 11.2507 72.1164 27.2723 83.2782C47.2993 97.2306 70.1591 91.2992 91.2508 101.341C106.818 108.752 140.616 134.686 142.972 162.399" stroke="#CFCFCF" stroke-opacity="0.7" stroke-width="1.45842"/>
<path opacity="0.578947" d="M16.8292 41.8646C14.3522 47.8637 13.099 63.0689 27.9018 75.8972C46.4052 91.9325 69.7409 88.4985 89.6995 100.759C104.43 109.808 135.415 139.245 134.95 167.059" stroke="#CFCFCF" stroke-opacity="0.7" stroke-width="1.45842"/>
<path opacity="0.631579" d="M21.5003 33.7813C18.429 39.4804 15.6419 54.4672 29.0637 68.8213C45.8409 86.764 69.3966 85.865 88.0035 100.211C101.737 110.799 129.569 143.415 126.288 171.027" stroke="#CFCFCF" stroke-opacity="0.7" stroke-width="1.45842"/>
<path opacity="0.684211" d="M26.7541 26.4423C23.1221 31.779 18.8316 46.3832 30.7253 62.1059C45.5924 81.7593 69.1103 83.4051 86.1616 99.6784C98.7467 111.689 123.121 147.128 117.06 174.235" stroke="#CFCFCF" stroke-opacity="0.7" stroke-width="1.45842"/>
<path opacity="0.736842" d="M32.5107 19.9071C28.3579 24.823 22.611 38.8845 32.8463 55.8035C45.6405 76.9523 68.8627 81.125 84.1716 99.1476C95.4707 112.45 116.121 150.322 107.346 176.627" stroke="#CFCFCF" stroke-opacity="0.7" stroke-width="1.45842"/>
<path opacity="0.789474" d="M38.6858 14.2241C34.0576 18.6652 26.9173 32.0301 35.3822 49.9601C45.9632 72.3725 68.6354 79.0263 82.0341 98.6009C91.9234 113.048 108.623 152.94 97.2303 178.155" stroke="#CFCFCF" stroke-opacity="0.7" stroke-width="1.45842"/>
<path opacity="0.842105" d="M45.1914 9.43573C40.1385 13.3535 31.6831 25.8753 38.2846 44.6198C46.5366 68.0503 68.4104 77.1123 79.7522 98.0244C88.1233 113.459 100.689 154.933 86.8038 178.781" stroke="#CFCFCF" stroke-opacity="0.7" stroke-width="1.45842"/>
<path opacity="0.894737" d="M51.9349 5.57103C46.5127 8.92254 36.8347 20.464 41.5007 39.8176C47.3332 64.0096 68.1689 75.3804 77.3295 97.401C84.0907 113.654 92.3848 156.255 76.1592 178.475" stroke="#CFCFCF" stroke-opacity="0.7" stroke-width="1.45842"/>
<path opacity="0.947368" d="M58.8215 2.65137C53.0893 5.39986 42.2949 15.8345 44.9742 35.5852C48.3233 60.2736 67.8926 73.8288 74.7716 96.7165C79.8489 113.609 83.7806 156.872 65.3923 177.221" stroke="#CFCFCF" stroke-opacity="0.7" stroke-width="1.45842"/>
<path d="M65.7542 0.6875C59.775 2.80286 47.9822 12.0164 48.6455 31.9478C49.4746 56.8621 67.5631 72.4531 72.0852 95.9571C75.4229 113.305 74.9492 156.754 54.5996 175.009" stroke="#CFCFCF" stroke-opacity="0.7" stroke-width="1.45842"/>
</svg>
