<svg width="182" height="182" viewBox="0 0 182 182" fill="none" xmlns="http://www.w3.org/2000/svg">
<path d="M71.432 11.2533C66.662 -0.949876 43.0637 -6.97602 46.9579 17.3215C47.5965 21.3055 47.6607 28.1656 46.9579 36.5157C46.3142 44.1648 33.7117 48.3503 29.8432 58.2338C23.7762 73.7342 46.4603 84.538 42.8504 92.6863C38.1224 103.358 23.6455 107.989 15.6379 113.828C8.09967 119.324 3.29802 128.144 1.45437 137.211C-1.7801 153.118 4.08966 169.789 20.2589 170.618C28.3532 171.034 39.0284 167.479 52.4346 157.872C58.4286 153.577 63.714 150.037 68.4113 147.174C80.5015 139.807 77.251 157.233 91.6274 157.872C99.819 158.236 108.375 143.192 114.851 151.216C119.457 156.922 124.741 163.846 132.289 170.963C145.543 183.463 162.114 185.304 164.458 167.464C165.564 159.042 163.5 146.235 156.42 128.094C151.89 116.484 163.159 116.893 164.458 102.016C165.756 87.1388 155.138 80.2779 162.825 74.1205L162.979 73.9971C168.837 69.3044 175.086 64.2994 178.498 54.6863C181.438 46.4056 181.157 38.204 178.498 31.902C175.653 25.1574 170.084 20.5884 162.825 20.4264C155.541 20.2637 146.555 24.5378 136.91 35.5026C130.551 42.7318 126.244 25.9105 114.851 27.63C103.459 29.3496 101.875 45.58 95.0504 40.8725C83.195 32.6953 77.0185 25.5453 71.432 11.2533Z" stroke="#CFCFCF" stroke-opacity="0.7" stroke-width="1.19883"/>
<path d="M94.4439 77.8184C93.7179 75.945 90.3349 76.4368 90.1636 78.4671C89.9687 80.7787 91.1571 83.7912 91.0197 86.1083C90.7545 90.5823 89.147 91.8559 85.9464 94.2139C84.7992 95.0577 84.0684 96.4117 83.7879 97.8037C83.2956 100.246 84.1889 102.805 86.6497 102.932C87.8815 102.996 89.5061 102.45 91.5463 100.975C92.4585 100.316 93.2629 99.7726 93.9778 99.3332C97.0898 97.2672 99.9861 98.886 101.045 99.9537C101.746 100.83 102.55 101.893 103.699 102.985C105.716 104.904 108.771 104.653 108.595 102.448C108.346 99.3332 102.938 87.7067 108.595 85.6794C111.222 84.7376 111.136 82.6045 110.731 81.637C110.298 80.6016 109.451 79.9002 108.346 79.8753C107.238 79.8503 105.401 81.637 104.402 82.1897C100.714 84.2303 97.4235 85.285 94.4439 77.8184Z" stroke="#CFCFCF" stroke-opacity="0.7" stroke-width="1.19883"/>
<path d="M50.9038 22.6375C47.4477 0.518271 69.0127 6.03214 73.3858 17.2193C78.7398 30.8962 84.6589 37.3062 95.7813 44.5619C102.037 48.8199 103.542 34.0004 113.973 32.3896C124.405 30.7789 128.39 46.0435 134.227 39.4673C143.103 29.4937 151.356 25.6683 158.023 25.9097C164.647 26.1008 169.725 30.3277 172.291 36.5337C174.686 42.3371 174.884 49.8683 172.09 57.4448C168.443 66.4506 163.177 72.0561 157.829 76.6394C150.843 82.341 160.439 88.6386 159.167 102.183C157.895 115.727 147.526 115.318 151.557 125.794C157.894 142.201 159.699 153.757 158.628 161.34C156.447 177.523 141.28 175.788 129.107 164.39C122.127 157.889 117.181 151.6 112.85 146.502C106.892 139.24 99.0339 152.977 91.4976 152.705C78.324 152.191 81.1982 136.382 70.1235 143.113C65.7754 145.745 60.9014 148.977 55.3916 152.882C42.9698 161.611 33.1754 164.614 25.8554 164.016C11.1561 163.199 5.83836 147.969 8.81417 133.441C10.5245 125.135 14.9361 117.062 21.8472 112.023C29.4242 106.498 42.7426 102.17 47.0686 92.0566C50.3594 84.5386 29.6958 74.5888 35.1928 60.3662C38.6894 51.2538 50.1335 47.3257 50.7281 40.262C51.3753 32.5734 51.3977 26.275 50.9038 22.6375Z" stroke="#CFCFCF" stroke-opacity="0.7" stroke-width="1.19883"/>
<path d="M55.0261 28.1777C52.0131 8.30938 71.5132 13.2928 75.4831 23.4272C80.5969 36.4427 86.2501 42.0919 96.6233 48.4026C102.3 52.1973 103.725 38.8373 113.18 37.3408C122.635 35.8442 126.294 49.5022 131.599 43.6006C139.693 34.6507 147.202 31.2865 153.242 31.6057C159.22 31.8251 163.8 35.6959 166.082 41.3428C168.211 46.6283 168.326 53.4645 165.681 60.3118C161.835 68.5961 157.639 74.7785 152.853 79.2008C146.579 84.4277 155.138 90.1412 153.895 102.308C152.651 114.476 143.197 114.066 146.722 123.375C152.307 137.994 153.85 148.261 152.817 154.981C150.803 169.454 137.061 167.83 125.987 157.572C119.584 151.709 114.986 146.075 110.934 141.601C105.503 135.127 98.3546 147.51 91.4846 147.332C79.5332 146.943 82.0269 132.803 71.9838 138.875C67.9912 141.269 63.5357 144.182 58.5182 147.684C47.0989 155.507 38.1997 157.949 31.6647 157.17C18.4569 156.368 13.699 142.63 16.4118 129.528C17.9863 122.012 22.0014 114.711 28.2752 110.146C35.4106 104.953 47.5511 100.943 51.4688 91.4218C54.4356 84.559 35.8228 75.4961 40.7417 62.598C43.8613 54.2869 54.1302 50.6293 54.6748 44.1745C55.2655 37.1727 55.3745 31.4569 55.0261 28.1777Z" stroke="#CFCFCF" stroke-opacity="0.7" stroke-width="1.19883"/>
<path d="M58.9708 33.494C56.3964 15.804 73.8617 20.2752 77.4344 29.3935C82.3161 41.7936 87.7122 46.7028 97.3524 52.092C102.459 55.4372 103.805 43.4882 112.299 42.1005C120.793 40.7128 124.13 52.814 128.912 47.5656C136.237 39.6067 143.012 36.6913 148.435 37.0891C153.777 37.3376 157.866 40.8662 159.868 45.9746C161.734 50.7614 161.765 56.9272 159.266 63.0702C155.215 70.6628 152.083 77.4423 147.852 81.7191C142.278 86.4902 149.814 91.6403 148.597 102.475C147.38 113.309 138.827 112.899 141.852 121.074C146.694 133.958 147.977 142.975 146.98 148.856C145.129 161.672 132.791 160.154 122.799 150.997C116.963 145.751 112.705 140.752 108.926 136.885C104.015 131.174 97.5646 142.25 91.3502 142.164C80.6025 141.9 82.7195 129.376 73.6926 134.813C70.0493 136.977 66.0054 139.581 61.4724 142.693C51.0379 149.638 43.0201 151.529 37.26 150.567C25.5235 149.777 21.318 137.481 23.772 125.757C25.2132 119.003 28.838 112.448 34.4842 108.34C41.1892 103.462 52.1704 99.7537 55.6858 90.7919C58.3334 84.5595 41.7426 76.3508 46.091 64.7304C48.8383 57.1905 57.948 53.7903 58.4434 47.9211C58.9785 41.5807 59.1743 36.4267 58.9708 33.494Z" stroke="#CFCFCF" stroke-opacity="0.7" stroke-width="1.19883"/>
<path d="M63.0916 38.8099C60.9604 23.299 76.3599 27.2578 79.5291 35.3599C84.17 47.1456 89.2996 51.3145 98.1897 55.7816C102.717 58.6771 103.983 48.1394 111.5 46.8605C119.017 45.5816 122.027 56.1255 126.277 51.5303C132.82 44.5629 138.85 42.0964 143.646 42.5732C148.342 42.8508 151.932 46.0373 153.651 50.607C155.251 54.895 155.198 60.3905 152.849 65.829C148.599 72.73 146.537 80.1088 142.869 84.2406C138.007 88.5558 144.506 93.1425 143.317 102.644C142.129 112.145 134.492 111.734 137.01 118.775C141.101 129.924 142.122 137.689 141.163 142.732C139.478 153.89 128.567 152.477 119.674 144.423C114.416 139.793 110.504 135.428 107.006 132.17C102.622 127.223 96.882 136.991 91.3343 136.997C81.8094 136.857 83.5458 125.951 75.5511 130.752C72.2636 132.686 68.6385 134.981 64.598 137.703C55.1668 143.769 48.0446 145.108 43.0698 143.963C32.8253 143.185 29.1798 132.331 31.3706 121.986C32.6759 115.994 35.904 110.185 40.9125 106.535C47.1753 101.97 56.9779 98.5649 60.0848 90.1614C62.4083 84.5593 47.8691 77.2048 51.6392 66.8624C54.0095 60.0937 61.9435 56.9508 62.3889 51.6672C62.8675 45.9883 63.1498 41.3962 63.0916 38.8099Z" stroke="#CFCFCF" stroke-opacity="0.7" stroke-width="1.19883"/>
<path d="M67.2108 44.3761C65.5226 31.0789 78.8559 34.5163 81.6215 41.5841C86.0208 52.7287 90.8831 56.148 99.0221 59.6831C102.97 62.1225 104.156 53.0197 110.695 51.8525C117.235 50.6852 119.918 59.6483 123.637 55.7167C129.397 49.7562 134.682 47.7442 138.85 48.2988C142.9 48.6048 145.992 51.4421 147.427 55.4628C148.76 59.2425 148.625 64.0553 146.425 68.7771C141.979 74.9711 140.985 82.9319 137.879 86.9093C133.728 90.759 139.191 94.772 138.032 102.919C136.872 111.066 130.152 110.655 132.164 116.546C135.502 125.935 136.263 132.431 135.341 136.624C133.822 146.1 124.338 144.795 116.546 137.861C111.865 133.859 108.301 130.138 105.084 127.496C101.228 123.323 96.1973 131.761 91.3167 131.86C83.0148 131.844 84.3709 122.58 77.4087 126.734C74.4773 128.433 71.2711 130.415 67.7233 132.74C59.2961 137.915 53.0698 138.699 48.8801 137.374C40.1278 136.609 37.0422 127.221 38.9698 118.279C40.139 113.063 42.9703 108.012 47.341 104.829C53.1607 100.587 61.7841 97.4921 64.4825 89.666C66.4819 84.7067 53.9944 78.2229 57.1863 69.1816C59.1795 63.1994 65.938 60.3208 66.3332 55.6346C66.7553 50.63 67.1239 46.61 67.2108 44.3761Z" stroke="#CFCFCF" stroke-opacity="0.7" stroke-width="1.19883"/>
<path d="M71.1511 49.6921C69.9024 38.5751 81.1971 41.4999 83.5649 47.5511C87.7319 58.0825 92.337 60.7608 99.742 63.3728C103.119 65.3623 104.226 57.6715 109.803 56.613C115.379 55.5545 117.74 62.9593 120.935 59.6814C125.925 54.7128 130.475 53.1501 134.024 53.7839C137.437 54.1191 140.037 56.6143 141.191 60.0962C142.261 63.3771 142.042 67.5192 139.988 71.5363C135.335 77.0388 135.408 85.6013 132.858 89.4341C129.41 92.828 133.847 96.2773 132.714 103.09C131.581 109.903 125.763 109.492 127.274 114.248C129.868 121.9 130.368 127.145 129.482 130.497C128.127 138.314 120.049 137.115 113.341 131.284C109.228 127.899 106.005 124.813 103.061 122.779C99.7247 119.371 95.3941 126.5 91.1702 126.692C84.0742 126.8 85.0528 119.156 79.1085 122.672C76.527 124.142 73.7332 125.815 70.6706 127.75C63.2298 132.046 57.8865 132.277 54.4733 130.768C47.1949 130.015 44.6628 122.069 46.3312 114.507C47.3669 110.053 49.8072 105.749 53.5491 103.023C58.938 99.0951 66.4002 96.3025 68.6955 89.0342C70.375 84.7054 59.9133 79.076 62.5336 71.3131C64.1538 66.1022 69.7508 63.4807 70.0968 59.3802C70.4632 55.0373 70.9188 51.5794 71.1511 49.6921Z" stroke="#CFCFCF" stroke-opacity="0.7" stroke-width="1.19883"/>
<path d="M75.2652 55.0077C74.4592 46.0726 83.6857 48.4845 85.6493 53.5187C89.5728 63.4389 93.9082 65.3753 100.559 67.0629C103.356 68.6019 104.382 62.324 108.98 61.3742C113.579 60.4243 115.611 66.2695 118.274 63.6457C122.48 59.6699 126.284 58.5572 129.205 59.2706C131.971 59.6352 134.072 61.7882 134.943 64.7312C135.746 67.5131 135.445 70.9844 133.542 74.2963C128.696 79.1074 129.834 88.2762 127.847 91.9655C125.11 94.9035 128.511 97.7891 127.407 103.267C126.304 108.745 121.404 108.333 122.409 111.953C124.251 117.867 124.49 121.857 123.642 124.37C122.454 130.527 115.805 129.432 110.198 124.705C106.665 121.937 103.79 119.487 101.128 118.063C98.3204 115.419 94.7008 121.239 91.145 121.523C85.2735 121.757 85.8721 115.732 80.9615 118.612C78.7369 119.851 76.3627 121.216 73.7936 122.76C67.359 126.177 62.9129 125.854 60.285 124.16C54.4997 123.418 52.5278 116.916 53.9325 110.734C54.8318 107.043 56.8747 103.485 59.978 101.218C64.9215 97.6025 71.2027 95.1123 73.089 88.4006C74.4442 84.7023 66.0358 79.9275 68.0776 73.4435C69.3207 69.0042 73.7414 66.6396 74.0373 63.1248C74.347 59.4437 74.8884 56.5481 75.2652 55.0077Z" stroke="#CFCFCF" stroke-opacity="0.7" stroke-width="1.19883"/>
<path d="M79.2636 60.323C78.8967 53.5725 86.1045 55.4711 87.6748 59.4873C91.3776 68.7997 95.4687 69.9926 101.404 70.7533C103.636 71.8412 104.587 66.9777 108.232 66.1364C111.877 65.2951 113.593 69.5783 115.737 67.6096C119.183 64.6279 122.261 63.9661 124.57 64.7597C126.704 65.1541 128.318 66.9649 128.91 69.3686C129.45 71.6512 129.064 74.4512 127.301 77.0573C122.232 81.1771 124.445 90.9594 123.011 94.5067C120.972 96.9889 123.353 99.3101 122.272 103.452C121.192 107.593 117.182 107.179 117.687 109.661C118.786 113.834 118.764 116.569 117.95 118.239C116.923 122.733 111.666 121.744 107.13 118.121C104.156 115.972 101.613 114.158 99.2178 113.345C96.9237 111.467 93.9954 115.976 91.088 116.354C86.4092 116.713 86.6304 112.311 82.7268 114.553L82.6194 114.61C80.7716 115.602 78.8392 116.64 76.7892 117.77C71.325 120.306 67.7516 119.427 65.8955 117.546C61.5726 116.816 60.1506 111.758 61.2993 106.959C62.0674 104.031 63.724 101.221 66.2056 99.4121C70.7322 96.1086 75.8669 93.9204 77.3544 87.7636C78.3925 84.6962 71.9926 80.7764 73.4665 75.5724C74.3389 71.9049 77.6067 69.7968 77.854 66.8679C78.1088 63.849 78.7395 61.516 79.2636 60.323Z" stroke="#CFCFCF" stroke-opacity="0.7" stroke-width="1.19883"/>
<path d="M83.3683 65.8959C83.4438 61.3599 88.5768 62.7367 89.7415 65.7172C93.1958 74.3795 97.0119 74.8238 102.186 74.6547C103.836 75.2868 104.704 71.8592 107.368 71.1302C110.031 70.4011 111.417 73.1037 113.027 71.7987C115.686 69.8242 118.014 69.6161 119.693 70.4863C121.179 70.9086 122.293 72.3691 122.6 74.2229C122.874 75.9961 122.406 78.1123 120.796 80.0011C115.541 83.4112 118.815 93.762 117.945 97.1512C116.619 99.1664 117.961 100.913 116.912 103.7C115.862 106.486 112.775 106.073 112.774 107.406C113.122 109.82 112.839 111.287 112.064 112.107C111.205 114.919 107.381 114.039 103.951 111.538C101.559 110.016 99.369 108.847 97.2581 108.648C95.495 107.545 93.2806 110.723 91.0441 111.192C87.5943 111.675 87.4359 108.914 84.5697 110.509C83.0482 111.283 81.5025 112.025 79.9082 112.781C75.4561 114.425 72.7834 112.994 71.7138 110.936C68.8874 110.22 68.0266 106.63 68.9104 103.234C69.5413 101.083 70.7989 99.032 72.6395 97.6895C76.715 94.7128 80.6636 92.8364 81.7407 87.2624C82.4535 84.8394 78.1123 81.7921 79.0068 77.891C79.5013 75.0117 81.5905 73.1696 81.7873 70.8396C81.9852 68.4964 82.7006 66.7364 83.3683 65.8959Z" stroke="#CFCFCF" stroke-opacity="0.7" stroke-width="1.19883"/>
<path d="M87.5327 71.2185C88.0485 68.881 91.1232 69.7403 91.8856 71.6943C95.097 79.7262 98.6442 79.4251 103.068 78.3287C104.14 78.5075 104.928 76.5045 106.618 75.886C108.308 75.2674 109.367 76.3996 110.447 75.7536C112.325 74.7792 113.91 75.023 114.965 75.9714C115.807 76.4223 116.424 77.5367 116.45 78.8459C116.459 80.1149 115.908 81.5537 114.448 82.7311C109.002 85.4407 113.336 96.3793 113.025 99.6177C112.407 101.172 112.718 102.349 111.699 103.79C110.679 105.232 108.505 104.819 108.001 105.009C107.601 105.673 107.059 105.879 106.322 105.855C105.629 106.996 103.227 106.223 100.893 104.834C99.0778 103.934 97.2348 103.406 95.4045 103.818C94.1678 103.485 92.661 105.343 91.0895 105.904C88.8585 106.511 88.3221 105.382 86.4847 106.334C85.3184 106.876 84.1905 107.307 83.0873 107.669C79.637 108.427 77.8571 106.443 77.569 104.203C76.2283 103.5 75.9249 101.366 76.5463 99.3623C77.0415 97.9807 77.9035 96.6835 79.1084 95.8033C82.7401 93.1463 85.5133 91.577 86.1832 86.5727C86.5733 84.7872 84.2754 82.6036 84.5943 79.9936C84.7136 77.8942 85.6323 76.3136 85.7792 74.576C85.9207 72.9015 86.7213 71.7093 87.5327 71.2185Z" stroke="#CFCFCF" stroke-opacity="0.7" stroke-width="1.19883"/>
</svg>
