<svg width="182" height="182" viewBox="0 0 182 182" fill="none" xmlns="http://www.w3.org/2000/svg">
<path d="M2.73083 46.5064C-9.87553 -0.267791 36.8232 -5.02884 70.5241 9.09453C90.1871 16.358 103.1 -6.23083 127.459 2.78408C151.817 11.799 122.616 40.196 159.888 54.7701C197.16 69.3442 178.964 134.552 146.388 135.303C113.812 136.055 122.763 147.023 90.1871 172.114C57.6111 197.206 2.73091 162.348 16.3776 125.537C30.0243 88.7262 16.3774 97.1402 2.73083 46.5064Z" stroke="#CFCFCF" stroke-opacity="0.7" stroke-width="1.2494"/>
<path d="M72.8421 82.9082C71.3876 78.4533 78.2004 71.2663 83.6786 74.3334C88.6952 77.1421 93.8036 75.2479 97.1786 76.5C106.064 79.7965 102.795 81.5414 106.767 85.4565C111.6 90.2206 113.907 102.696 102.795 102.696C93.6568 102.696 96.3912 107.24 89.5482 109.254C82.7051 111.268 74.9446 107.84 74.9446 98.8157C74.9446 95.4268 75.2647 90.3281 72.8421 82.9082Z" stroke="#CFCFCF" stroke-opacity="0.7" stroke-width="1.2494"/>
<path d="M9.10392 49.5886C-2.48864 6.66162 40.5841 1.68003 71.7193 14.7983C90.0508 21.6568 102.254 0.949272 124.705 9.25848C147.657 17.7535 120.814 43.7276 155.058 57.3327C189.381 71.015 173.049 131.429 142.424 132.112C111.979 132.795 120.365 143.179 90.1283 166.173C59.8917 189.166 9.29512 157.166 21.7012 122.881C34.1073 89.1083 21.7301 96.2938 9.10392 49.5886Z" stroke="#CFCFCF" stroke-opacity="0.7" stroke-width="1.2494"/>
<path d="M15.4765 52.6704C4.89778 13.5907 44.3445 8.38854 72.9141 20.5017C89.914 26.9552 101.408 8.12901 121.951 15.7325C143.497 23.7077 119.011 47.2589 150.228 59.895C181.602 72.6855 167.134 128.306 138.46 128.92C110.146 129.535 117.966 139.335 90.0691 160.231C62.1719 181.126 15.8589 151.983 27.0243 120.224C38.1898 89.49 27.0824 95.4471 15.4765 52.6704Z" stroke="#CFCFCF" stroke-opacity="0.7" stroke-width="1.2494"/>
<path d="M21.8497 55.7529C12.2847 20.5204 48.1055 15.0977 74.1093 26.2057C89.7778 32.2543 100.562 15.3094 119.198 22.2072C139.337 29.6625 117.208 50.7908 145.398 62.4579C173.823 74.3565 161.219 125.183 134.497 125.729C108.313 126.275 115.568 135.492 90.0104 154.289C64.4525 173.087 22.4232 146.801 32.348 117.568C42.2729 89.8724 32.4352 94.6011 21.8497 55.7529Z" stroke="#CFCFCF" stroke-opacity="0.7" stroke-width="1.2494"/>
<path d="M28.2224 58.8352C19.6713 27.4498 51.866 21.8066 75.3042 31.9095C89.6412 37.5531 99.7161 22.4896 116.444 28.6817C135.176 35.6171 115.405 54.3224 140.568 65.0205C166.044 76.0274 155.303 122.06 130.533 122.538C106.479 123.016 113.17 131.648 89.9513 148.348C66.7328 165.047 28.987 141.619 37.6713 114.912C46.3555 90.2545 37.7875 93.7548 28.2224 58.8352Z" stroke="#CFCFCF" stroke-opacity="0.7" stroke-width="1.2494"/>
<path d="M34.5957 62.0741C27.0583 34.5359 55.6271 28.6722 76.4996 37.77C89.5051 43.0086 98.8705 29.8263 113.691 35.3127C131.016 41.7284 113.603 58.0108 135.738 67.7399C158.265 77.8549 149.389 119.093 126.569 119.503C104.647 119.913 110.772 127.961 89.8928 142.563C69.0136 157.164 35.5514 136.593 42.9951 112.412C50.4387 90.7933 43.1405 93.0652 34.5957 62.0741Z" stroke="#CFCFCF" stroke-opacity="0.7" stroke-width="1.2494"/>
<path d="M40.9686 65.4976C34.445 41.8067 59.3878 35.7224 77.6946 43.8151C89.3686 48.6487 98.0245 37.3478 110.938 42.1285C126.856 48.0242 111.8 61.8837 130.908 70.6438C150.486 79.867 143.473 116.312 122.605 116.653C102.814 116.995 108.374 124.459 89.8338 136.963C71.294 149.466 42.1155 131.752 48.3185 110.097C54.5215 91.5168 48.493 92.5602 40.9686 65.4976Z" stroke="#CFCFCF" stroke-opacity="0.7" stroke-width="1.2494"/>
<path d="M47.3421 68.9315C41.8324 49.0878 63.1492 42.7829 78.8902 49.8706C89.2327 54.2992 97.1792 44.8796 108.185 48.9546C122.696 54.3305 109.998 65.7671 126.079 73.5581C142.708 81.8895 137.559 113.54 118.642 113.813C100.981 114.087 105.976 120.967 89.7755 131.373C73.5751 141.778 48.6801 126.922 53.6426 107.793C58.605 92.2506 53.8462 92.0656 47.3421 68.9315Z" stroke="#CFCFCF" stroke-opacity="0.7" stroke-width="1.2494"/>
<path d="M53.7159 72.3797C49.22 56.3832 66.9108 49.8578 80.0861 55.9403C89.0971 59.9639 96.3341 52.4257 105.432 55.795C118.537 60.651 108.196 69.6647 121.25 76.4868C134.93 83.9263 131.645 110.783 114.679 110.988C99.1488 111.193 103.579 117.489 89.7175 125.797C75.8564 134.105 55.2451 122.105 58.9669 105.503C62.6887 92.9986 59.1996 91.5852 53.7159 72.3797Z" stroke="#CFCFCF" stroke-opacity="0.7" stroke-width="1.2494"/>
<path d="M60.0897 75.8502C56.6075 63.7008 70.6724 56.9549 81.282 62.0323C88.9615 65.651 95.489 59.9941 102.679 62.6576C114.378 66.9938 106.394 73.5846 116.421 79.4376C127.152 85.9854 125.73 108.048 110.716 108.185C97.3165 108.321 101.181 114.034 89.6594 120.244C78.1377 126.453 61.81 117.311 64.2912 103.235C66.7724 93.769 64.553 91.1272 60.0897 75.8502Z" stroke="#CFCFCF" stroke-opacity="0.7" stroke-width="1.2494"/>
<path d="M66.4644 79.3533C63.9961 71.0511 74.4349 64.0847 82.4788 68.157C88.8269 71.3706 94.6448 67.595 99.9274 69.5529C110.219 73.3692 104.593 77.537 111.592 82.4211C119.375 88.0771 119.817 105.346 106.754 105.414C95.4852 105.483 98.7847 110.611 89.6023 114.723C80.4199 118.835 68.3758 112.55 69.6164 100.999C70.857 94.572 69.9073 90.7017 66.4644 79.3533Z" stroke="#CFCFCF" stroke-opacity="0.7" stroke-width="1.2494"/>
</svg>
